<svg
   viewBox="0 0 500 500"
   version="1.1"
   id="svg63194"
   xmlns="http://www.w3.org/2000/svg">
  <defs
     id="defs63139">
    <clipPath
       id="freepik--clip-path--inject-1">
      <circle
         cx="238.55"
         cy="258.32"
         r="148.18"
         transform="translate(-112.79 244.34) rotate(-45)"
         style="fill:#878787;stroke:#263238;stroke-linecap:round;stroke-linejoin:round"
         id="circle63133" />
    </clipPath>
    <clipPath
       id="freepik--clip-path-2--inject-1">
      <path
         d="M341.64,285.5,231.87,258.39s-11-3.41-20,2.25-11.44,6.43-15.58,13.55a15.66,15.66,0,0,0,5.5,21.18c7.85,4.77,60.66,14.45,60.66,14.45s13,7,18.69,8.4,17,2.86,19.34,2.57a29.75,29.75,0,0,0,4.67-1.06l12.61,2.73-4.67,2.31s-11-3.41-15.21,5.43,2.9,14.22,9.73,16.06a21.57,21.57,0,0,0,13.75-.51c2.14-.82,4.72-.06,6.62-3.41s2.76-5.16,1.8-6.59l-1.92-2.86a13,13,0,0,0,3.39-.82,29.4,29.4,0,0,0,4.91-3.5L354.7,335s5.27,4.76,8.66,5.18,4.33-.86,4.33-.86l26.15,9.84s2.44,2.72,4.59,3.14a10.36,10.36,0,0,0,4.25-.15l48.49,17,.44,2.81,3.42-6-4.15.92-122.8-46.55s22.75-5.94,34.62-13.27l51.79,16.66-.63-1.86-47.5-18.3s1.85-4.34.51-6.35a25.61,25.61,0,0,0-4.11-4.28L391,241.4l-6.21-1.22-37.73,44.16S345.93,285.11,341.64,285.5Z"
         style="fill:#fff;stroke:#263238;stroke-linecap:round;stroke-linejoin:round"
         id="path63136" />
    </clipPath>
  </defs>
  <g
     id="freepik--Clouds--inject-1">
    <path
       d="M405.81,210.08a17.31,17.31,0,0,0,.36-3.55,17.69,17.69,0,0,0-26.34-15.44,34.32,34.32,0,0,0-64.25-9.39,25.85,25.85,0,0,0-4.34-.38,25.14,25.14,0,0,0-20.74,10.89,17.67,17.67,0,0,0-28.07,14.32,18,18,0,0,0,.35,3.55Z"
       style="fill:#e4e6ff;stroke:none;stroke-miterlimit:10;stroke-opacity:1;fill-opacity:1"
       id="path63146" />
    <path
       d="M194.63,178.29a12.54,12.54,0,0,0,.24-2.47,12.29,12.29,0,0,0-18.28-10.72,23.83,23.83,0,0,0-44.6-6.51,17.67,17.67,0,0,0-3-.26,17.47,17.47,0,0,0-14.39,7.55,12.28,12.28,0,0,0-19.49,9.94,12.54,12.54,0,0,0,.25,2.47Z"
       style="fill:#e4e6ff;stroke:none;stroke-miterlimit:10;stroke-opacity:1;fill-opacity:1"
       id="path63148" />
    <path
       d="M232.72,361.12a14.19,14.19,0,0,0,.28-2.79,13.92,13.92,0,0,0-20.71-12.15,27,27,0,0,0-50.53-7.38,20.23,20.23,0,0,0-3.42-.3A19.81,19.81,0,0,0,142,347.06,13.9,13.9,0,0,0,120,358.33a13.47,13.47,0,0,0,.28,2.79Z"
       style="fill:#e4e6ff;stroke:none;stroke-miterlimit:10;stroke-opacity:1;fill-opacity:1"
       id="path63150" />
    <path
       d="M320.17,245.64a7.69,7.69,0,0,0,.16-1.6,8,8,0,0,0-7.95-7.95,7.85,7.85,0,0,0-3.88,1,15.42,15.42,0,0,0-28.86-4.22,11.49,11.49,0,0,0-1.95-.17,11.28,11.28,0,0,0-9.32,4.89A7.94,7.94,0,0,0,255.76,244a8.43,8.43,0,0,0,.16,1.6Z"
       style="fill:#e4e6ff;stroke:none;stroke-miterlimit:10;stroke-opacity:1;fill-opacity:1"
       id="path63152" />
    <path
       d="M276.85,392.34a8.43,8.43,0,0,0,.16-1.6,8,8,0,0,0-7.95-7.95,7.85,7.85,0,0,0-3.88,1,15.42,15.42,0,0,0-28.87-4.22A11.32,11.32,0,0,0,225,384.31a7.93,7.93,0,0,0-12.6,6.43,7.69,7.69,0,0,0,.16,1.6Z"
       style="fill:#e4e6ff;stroke:none;stroke-miterlimit:10;stroke-opacity:1;fill-opacity:1"
       id="path63154" />
  </g>
  <path
     d="m 381,217.35 q 1.08,3.77 2,7.61 c 28.79,14.62 45.2,29.9 42.68,42.66 -3.4,17.24 -40.52,25.62 -93.47,24 v 16 c 71.93,4.18 123.34,-5.43 127.66,-27.31 3.63,-18.65 -27.58,-41.97 -78.87,-62.96 z"
     style="fill:#525a9c;stroke:none;stroke-miterlimit:10;fill-opacity:1"
     id="path63157" />
  <path
     d="m 217.41,260 -53.71,-39.62 2.09,-3.06 -5.72,3.84 -0.13,4.44 1.86,-1.87 27.12,21 a 5.11,5.11 0 0 0 3.08,3.07 27.15,27.15 0 0 1 3.25,1.14 l 17,14.51 z"
     style="fill:#ffffff;stroke:#263238;stroke-linecap:round;stroke-linejoin:round"
     id="path63159" />
  <polygon
     points="311.14,271.55 324.11,283.78 328.22,283.1 313.82,271.82 "
     style="fill:#ffffff;stroke:#263238;stroke-linecap:round;stroke-linejoin:round"
     id="polygon63161" />
  <path
     d="M 341.64,285.5 231.87,258.39 c 0,0 -11,-3.41 -20,2.25 -9,5.66 -11.44,6.43 -15.58,13.55 a 15.66,15.66 0 0 0 5.5,21.18 c 7.85,4.77 60.66,14.45 60.66,14.45 0,0 13,7 18.69,8.4 5.69,1.4 17,2.86 19.34,2.57 a 29.75,29.75 0 0 0 4.67,-1.06 l 12.61,2.73 -4.67,2.31 c 0,0 -11,-3.41 -15.21,5.43 -4.21,8.84 2.9,14.22 9.73,16.06 a 21.57,21.57 0 0 0 13.75,-0.51 c 2.14,-0.82 4.72,-0.06 6.62,-3.41 1.9,-3.35 2.76,-5.16 1.8,-6.59 l -1.92,-2.86 a 13,13 0 0 0 3.39,-0.82 29.4,29.4 0 0 0 4.91,-3.5 L 354.7,335 c 0,0 5.27,4.76 8.66,5.18 3.39,0.42 4.33,-0.86 4.33,-0.86 l 26.15,9.84 c 0,0 2.44,2.72 4.59,3.14 a 10.36,10.36 0 0 0 4.25,-0.15 l 48.49,17 0.44,2.81 3.42,-6 -4.15,0.92 -122.8,-46.55 c 0,0 22.75,-5.94 34.62,-13.27 l 51.79,16.66 -0.63,-1.86 -47.5,-18.3 c 0,0 1.85,-4.34 0.51,-6.35 a 25.61,25.61 0 0 0 -4.11,-4.28 L 391,241.4 l -6.21,-1.22 -37.73,44.16 c 0,0 -1.13,0.77 -5.42,1.16 z"
     style="fill:#ffffff"
     id="path63163" />
  <g
     clip-path="url(#freepik--clip-path-2--inject-1)"
     id="g63167">
    <path
       d="M 336.12,328.57 354.7,335 c 0,0 5.27,4.76 8.66,5.18 3.39,0.42 4.33,-0.86 4.33,-0.86 l 26.15,9.84 c 0,0 2.44,2.72 4.59,3.14 a 10.36,10.36 0 0 0 4.25,-0.15 l 48.49,17 0.44,2.81 3.42,-6 -4.15,0.92 -122.8,-46.55 c 0,0 22.75,-5.94 34.62,-13.27 l 51.79,16.66 -0.63,-1.86 -47.5,-18.3 c 0,0 1.85,-4.34 0.51,-6.35 a 25.61,25.61 0 0 0 -4.11,-4.28 L 391,241.4 l -4.13,-0.81 c -2.24,3 -29,39.11 -33.12,45.11 -4.34,6.27 -14,5.79 -14,5.79 0,0 -75.21,-16.88 -86.3,-18.32 -11.09,-1.44 -24.59,-3.86 -33.75,6.26 -9.16,10.12 -8.68,18.81 -8.68,18.81 l 0.86,0.7 c 17.76,4.88 50.49,10.88 50.49,10.88 0,0 13,7 18.69,8.4 5.69,1.4 17,2.86 19.34,2.57 a 29.75,29.75 0 0 0 4.67,-1.06 l 12.61,2.73 -4.67,2.31 c 0,0 -11,-3.41 -15.21,5.43 -4.21,8.84 2.9,14.22 9.73,16.06 a 21.57,21.57 0 0 0 13.75,-0.51 c 2.14,-0.82 4.72,-0.06 6.62,-3.41 1.9,-3.35 2.76,-5.16 1.8,-6.59 l -1.92,-2.86 a 13,13 0 0 0 3.39,-0.82 29.4,29.4 0 0 0 4.95,-3.5 z"
       style="opacity:0.2;stroke:#263238;stroke-width:0.75px;stroke-linecap:round;stroke-linejoin:round"
       id="path63165" />
  </g>
  <path
     d="M 341.64,285.5 231.87,258.39 c 0,0 -11,-3.41 -20,2.25 -9,5.66 -11.44,6.43 -15.58,13.55 a 15.66,15.66 0 0 0 5.5,21.18 c 7.85,4.77 60.66,14.45 60.66,14.45 0,0 13,7 18.69,8.4 5.69,1.4 17,2.86 19.34,2.57 a 29.75,29.75 0 0 0 4.67,-1.06 l 12.61,2.73 -4.67,2.31 c 0,0 -11,-3.41 -15.21,5.43 -4.21,8.84 2.9,14.22 9.73,16.06 a 21.57,21.57 0 0 0 13.75,-0.51 c 2.14,-0.82 4.72,-0.06 6.62,-3.41 1.9,-3.35 2.76,-5.16 1.8,-6.59 l -1.92,-2.86 a 13,13 0 0 0 3.39,-0.82 29.4,29.4 0 0 0 4.91,-3.5 L 354.7,335 c 0,0 5.27,4.76 8.66,5.18 3.39,0.42 4.33,-0.86 4.33,-0.86 l 26.15,9.84 c 0,0 2.44,2.72 4.59,3.14 a 10.36,10.36 0 0 0 4.25,-0.15 l 48.49,17 0.44,2.81 3.42,-6 -4.15,0.92 -122.8,-46.55 c 0,0 22.75,-5.94 34.62,-13.27 l 51.79,16.66 -0.63,-1.86 -47.5,-18.3 c 0,0 1.85,-4.34 0.51,-6.35 a 25.61,25.61 0 0 0 -4.11,-4.28 L 391,241.4 l -6.21,-1.22 -37.73,44.16 c 0,0 -1.13,0.77 -5.42,1.16 z"
     style="fill:none;stroke:#263238;stroke-linecap:round;stroke-linejoin:round"
     id="path63169" />
  <polygon
     points="210.81,272.19 211.25,272.5 220.56,276.39 222.98,271.5 214.75,268.01 "
     style="fill:#263238"
     id="polygon63171" />
  <path
     d="m 208.28,263.92 -0.76,-0.63 c -1.78,1.1 -3.22,2 -4.46,2.91 l 0.85,0.94 z"
     style="fill:#263238"
     id="path63173" />
  <polygon
     points="204.64,267.94 204.74,268.04 209.91,271.58 213.7,267.56 209.17,264.6 "
     style="fill:#263238"
     id="polygon63175" />
  <polygon
     points="221.54,276.84 226.7,279.89 227.93,280.21 227.37,273.07 224,271.87 "
     style="fill:#263238"
     id="polygon63177" />
  <path
     d="m 232,276.71 c -0.39,-2.78 -0.84,-2.28 -0.84,-2.28 l -2.7,-1 0.55,7 2.8,0.74 a 10.92,10.92 0 0 0 0.19,-4.46 z"
     style="fill:#263238"
     id="path63179" />
  <ellipse
     cx="-268.78378"
     cy="364.86526"
     rx="8.5799999"
     ry="8"
     transform="rotate(-78.84)"
     style="fill:#263238;stroke:#263238;stroke-linecap:round;stroke-linejoin:round"
     id="ellipse63181" />
  <path
     d="m 362.7,307 -5,-1.53 a 3.19,3.19 0 0 1 1.24,-2.69 c 1.33,-0.8 7.43,0.72 7.43,0.72"
     style="fill:#ffffff;stroke:#263238;stroke-linecap:round;stroke-linejoin:round"
     id="path63183" />
  <path
     d="m 304.33,320 a 150.13,150.13 0 0 1 -15.48,-5.27 c -3.81,-1.58 -2,-5.33 -2,-5.33 l -14.57,-4 c 0,0 -24.9,-4.4 -49.77,-10.4 -16.58,-4 -24.69,-8.89 -28.26,-11.71 a 15.66,15.66 0 0 0 7.5,12.06 c 7.85,4.77 60.66,14.45 60.66,14.45 0,0 13,7 18.69,8.4 5.69,1.4 17,2.86 19.34,2.57 a 28.38,28.38 0 0 0 3.89,-0.77 z"
     style="fill:#263238;stroke:#263238;stroke-width:0.75px;stroke-linecap:round;stroke-linejoin:round"
     id="path63185" />
  <path
     d="m 337.15,317.63 -27.25,-5.37 2.17,1.52 16.19,6.46 c 0.8,-0.24 4.26,-1.15 8.89,-2.61 z"
     style="fill:#263238;stroke:#263238;stroke-width:0.75px;stroke-linecap:round;stroke-linejoin:round"
     id="path63187" />
  <line
     x1="350.20999"
     y1="290.78"
     x2="345.01999"
     y2="289.89999"
     style="fill:#ffffff;stroke:#263238;stroke-miterlimit:10"
     id="line63189" />
  <line
     x1="362.76001"
     y1="292.89001"
     x2="353.81"
     y2="291.38"
     style="fill:#ffffff;stroke:#263238;stroke-miterlimit:10"
     id="line63191" />
</svg>
