<svg
   width="50.636158mm"
   height="41.613037mm"
   viewBox="0 0 50.636158 41.613037"
   version="1.1"
   id="svg70867"
   xmlns="http://www.w3.org/2000/svg">
  <g
     id="layer1"
     transform="translate(-51.430758,-130.19227)">
    <g
       id="g91701"
       transform="matrix(0.10910186,0,0,0.10910186,49.6762,124.09054)"
       style="display:inline">
      <g
         id="g91371">
        <path
           d="m 466.11,193.94 c -16.24,-53.08 -58,-95.57 -107.4,-118 C 311.57,54.6 252,44 207.31,76.93 c -29.41,21.65 -46.06,56.35 -73,80.64 -13.39,12.07 -28,16 -44,23.22 -38.81,17.6 -71.29,51.54 -74,96.31 -4.38,74.9 54.96,126.64 121.18,143.63 87.5,22.44 152.9,22.44 213,-1.8 31.21,-12.59 63,-28.51 85.48,-54.58 34,-39.42 43.43,-95.42 35.69,-146 a 171.56,171.56 0 0 0 -5.55,-24.41 z"
           style="fill:#282f6f"
           id="path91367" />
        <path
           d="m 466.11,193.94 c -16.24,-53.08 -58,-95.57 -107.4,-118 C 311.57,54.6 252,44 207.31,76.93 c -29.41,21.65 -46.06,56.35 -73,80.64 -13.39,12.07 -28,16 -44,23.22 -38.81,17.6 -71.29,51.54 -74,96.31 -4.38,74.9 54.96,126.64 121.18,143.63 87.5,22.44 152.9,22.44 213,-1.8 31.21,-12.59 63,-28.51 85.48,-54.58 34,-39.42 43.43,-95.42 35.69,-146 a 171.56,171.56 0 0 0 -5.55,-24.41 z"
           style="opacity:0.8;fill:#ffffff"
           id="path91369" />
      </g>
      <g
         id="g91585">
        <polygon
           points="60.16,203.61 60.16,206.79 91.03,206.79 91.03,184.95 75.75,184.95 74.72,181.78 60.16,181.78 60.16,184.95 "
           style="fill:#282f6f"
           id="polygon91373" />
        <polygon
           points="60.16,251.2 60.16,254.38 91.03,254.38 91.03,232.54 75.75,232.54 74.72,229.37 60.16,229.37 60.16,232.54 "
           style="fill:#282f6f"
           id="polygon91375" />
        <polygon
           points="60.16,298.79 60.16,301.97 91.03,301.97 91.03,280.13 75.75,280.13 74.72,276.96 60.16,276.96 60.16,280.13 "
           style="fill:#282f6f"
           id="polygon91377" />
        <polygon
           points="60.16,346.38 60.16,349.56 91.03,349.56 91.03,327.72 75.75,327.72 74.72,324.55 60.16,324.55 60.16,327.72 "
           style="fill:#282f6f"
           id="polygon91379" />
        <polygon
           points="60.16,393.97 60.16,397.15 91.03,397.15 91.03,375.31 75.75,375.31 74.72,372.14 60.16,372.14 60.16,375.31 "
           style="fill:#282f6f"
           id="polygon91381" />
        <polygon
           points="153.45,203.61 153.45,206.79 184.31,206.79 184.31,184.95 169.03,184.95 168,181.78 153.45,181.78 153.45,184.95 "
           style="fill:#282f6f"
           id="polygon91383" />
        <polygon
           points="212.93,184.95 212.93,203.61 212.93,206.79 243.8,206.79 243.8,184.95 228.52,184.95 227.49,181.78 212.93,181.78 "
           style="fill:#282f6f"
           id="polygon91385" />
        <polygon
           points="153.45,251.2 153.45,254.38 184.31,254.38 184.31,232.54 169.03,232.54 168,229.37 153.45,229.37 153.45,232.54 "
           style="fill:#282f6f"
           id="polygon91387" />
        <polygon
           points="212.93,298.79 212.93,301.97 243.8,301.97 243.8,280.13 228.52,280.13 227.49,276.96 212.93,276.96 212.93,280.13 "
           style="fill:#282f6f"
           id="polygon91389" />
        <polygon
           points="212.93,251.2 212.93,254.38 243.8,254.38 243.8,232.54 228.52,232.54 227.49,229.37 212.93,229.37 212.93,232.54 "
           style="fill:#282f6f"
           id="polygon91391" />
        <polygon
           points="153.45,298.79 153.45,301.97 184.31,301.97 184.31,280.13 169.03,280.13 168,276.96 153.45,276.96 153.45,280.13 "
           style="fill:#282f6f"
           id="polygon91393" />
        <polygon
           points="153.45,346.38 153.45,349.56 184.31,349.56 184.31,327.72 169.03,327.72 168,324.55 153.45,324.55 153.45,327.72 "
           style="fill:#282f6f"
           id="polygon91395" />
        <polygon
           points="212.93,346.38 212.93,349.56 243.8,349.56 243.8,327.72 228.52,327.72 227.49,324.55 212.93,324.55 212.93,327.72 "
           style="fill:#282f6f"
           id="polygon91397" />
        <polygon
           points="153.45,393.97 153.45,397.15 184.31,397.15 184.31,375.31 169.03,375.31 168,372.14 153.45,372.14 153.45,375.31 "
           style="fill:#282f6f"
           id="polygon91399" />
        <polygon
           points="212.93,393.97 212.93,397.15 243.8,397.15 243.8,375.31 228.52,375.31 227.49,372.14 212.93,372.14 212.93,375.31 "
           style="fill:#282f6f"
           id="polygon91401" />
        <g
           style="opacity:0.5"
           id="g91433">
          <polygon
             points="60.16,203.61 60.16,206.79 91.03,206.79 91.03,184.95 75.75,184.95 74.72,181.78 60.16,181.78 60.16,184.95 "
             style="fill:#ffffff"
             id="polygon91403" />
          <polygon
             points="60.16,251.2 60.16,254.38 91.03,254.38 91.03,232.54 75.75,232.54 74.72,229.37 60.16,229.37 60.16,232.54 "
             style="fill:#ffffff"
             id="polygon91405" />
          <polygon
             points="60.16,298.79 60.16,301.97 91.03,301.97 91.03,280.13 75.75,280.13 74.72,276.96 60.16,276.96 60.16,280.13 "
             style="fill:#ffffff"
             id="polygon91407" />
          <polygon
             points="60.16,346.38 60.16,349.56 91.03,349.56 91.03,327.72 75.75,327.72 74.72,324.55 60.16,324.55 60.16,327.72 "
             style="fill:#ffffff"
             id="polygon91409" />
          <polygon
             points="60.16,393.97 60.16,397.15 91.03,397.15 91.03,375.31 75.75,375.31 74.72,372.14 60.16,372.14 60.16,375.31 "
             style="fill:#ffffff"
             id="polygon91411" />
          <polygon
             points="153.45,203.61 153.45,206.79 184.31,206.79 184.31,184.95 169.03,184.95 168,181.78 153.45,181.78 153.45,184.95 "
             style="fill:#ffffff"
             id="polygon91413" />
          <polygon
             points="212.93,184.95 212.93,203.61 212.93,206.79 243.8,206.79 243.8,184.95 228.52,184.95 227.49,181.78 212.93,181.78 "
             style="fill:#ffffff"
             id="polygon91415" />
          <polygon
             points="153.45,251.2 153.45,254.38 184.31,254.38 184.31,232.54 169.03,232.54 168,229.37 153.45,229.37 153.45,232.54 "
             style="fill:#ffffff"
             id="polygon91417" />
          <polygon
             points="212.93,298.79 212.93,301.97 243.8,301.97 243.8,280.13 228.52,280.13 227.49,276.96 212.93,276.96 212.93,280.13 "
             style="fill:#ffffff"
             id="polygon91419" />
          <polygon
             points="212.93,251.2 212.93,254.38 243.8,254.38 243.8,232.54 228.52,232.54 227.49,229.37 212.93,229.37 212.93,232.54 "
             style="fill:#ffffff"
             id="polygon91421" />
          <polygon
             points="153.45,298.79 153.45,301.97 184.31,301.97 184.31,280.13 169.03,280.13 168,276.96 153.45,276.96 153.45,280.13 "
             style="fill:#ffffff"
             id="polygon91423" />
          <polygon
             points="153.45,346.38 153.45,349.56 184.31,349.56 184.31,327.72 169.03,327.72 168,324.55 153.45,324.55 153.45,327.72 "
             style="fill:#ffffff"
             id="polygon91425" />
          <polygon
             points="212.93,346.38 212.93,349.56 243.8,349.56 243.8,327.72 228.52,327.72 227.49,324.55 212.93,324.55 212.93,327.72 "
             style="fill:#ffffff"
             id="polygon91427" />
          <polygon
             points="153.45,393.97 153.45,397.15 184.31,397.15 184.31,375.31 169.03,375.31 168,372.14 153.45,372.14 153.45,375.31 "
             style="fill:#ffffff"
             id="polygon91429" />
          <polygon
             points="212.93,393.97 212.93,397.15 243.8,397.15 243.8,375.31 228.52,375.31 227.49,372.14 212.93,372.14 212.93,375.31 "
             style="fill:#ffffff"
             id="polygon91431" />
        </g>
        <polygon
           points="284.76,203.61 284.76,206.79 315.62,206.79 315.62,184.95 300.34,184.95 299.31,181.78 284.76,181.78 284.76,184.95 "
           style="fill:#282f6f"
           id="polygon91435" />
        <polygon
           points="284.76,251.2 284.76,254.38 315.62,254.38 315.62,232.54 300.34,232.54 299.31,229.37 284.76,229.37 284.76,232.54 "
           style="fill:#282f6f"
           id="polygon91437" />
        <polygon
           points="284.76,298.79 284.76,301.97 315.62,301.97 315.62,280.13 300.34,280.13 299.31,276.96 284.76,276.96 284.76,280.13 "
           style="fill:#282f6f"
           id="polygon91439" />
        <polygon
           points="284.76,346.38 284.76,349.56 315.62,349.56 315.62,327.72 300.34,327.72 299.31,324.55 284.76,324.55 284.76,327.72 "
           style="fill:#282f6f"
           id="polygon91441" />
        <polygon
           points="284.76,393.97 284.76,397.15 315.62,397.15 315.62,375.31 300.34,375.31 299.31,372.14 284.76,372.14 284.76,375.31 "
           style="fill:#282f6f"
           id="polygon91443" />
        <polygon
           points="362.45,203.61 362.45,206.79 393.32,206.79 393.32,184.95 378.04,184.95 377,181.78 362.45,181.78 362.45,184.95 "
           style="fill:#282f6f"
           id="polygon91445" />
        <polygon
           points="421.94,184.95 421.94,203.61 421.94,206.79 452.8,206.79 452.8,184.95 437.52,184.95 436.49,181.78 421.94,181.78 "
           style="fill:#282f6f"
           id="polygon91447" />
        <polygon
           points="362.45,251.2 362.45,254.38 393.32,254.38 393.32,232.54 378.04,232.54 377,229.37 362.45,229.37 362.45,232.54 "
           style="fill:#282f6f"
           id="polygon91449" />
        <polygon
           points="421.94,298.79 421.94,301.97 452.8,301.97 452.8,280.13 437.52,280.13 436.49,276.96 421.94,276.96 421.94,280.13 "
           style="fill:#282f6f"
           id="polygon91451" />
        <polygon
           points="421.94,251.2 421.94,254.38 452.8,254.38 452.8,232.54 437.52,232.54 436.49,229.37 421.94,229.37 421.94,232.54 "
           style="fill:#282f6f"
           id="polygon91453" />
        <polygon
           points="362.45,298.79 362.45,301.97 393.32,301.97 393.32,280.13 378.04,280.13 377,276.96 362.45,276.96 362.45,280.13 "
           style="fill:#282f6f"
           id="polygon91455" />
        <polygon
           points="362.45,346.38 362.45,349.56 393.32,349.56 393.32,327.72 378.04,327.72 377,324.55 362.45,324.55 362.45,327.72 "
           style="fill:#282f6f"
           id="polygon91457" />
        <polygon
           points="421.94,346.38 421.94,349.56 452.8,349.56 452.8,327.72 437.52,327.72 436.49,324.55 421.94,324.55 421.94,327.72 "
           style="fill:#282f6f"
           id="polygon91459" />
        <polygon
           points="362.45,393.97 362.45,397.15 393.32,397.15 393.32,375.31 378.04,375.31 377,372.14 362.45,372.14 362.45,375.31 "
           style="fill:#282f6f"
           id="polygon91461" />
        <polygon
           points="421.94,393.97 421.94,397.15 452.8,397.15 452.8,375.31 437.52,375.31 436.49,372.14 421.94,372.14 421.94,375.31 "
           style="fill:#282f6f"
           id="polygon91463" />
        <g
           style="opacity:0.5"
           id="g91495">
          <polygon
             points="284.76,203.61 284.76,206.79 315.62,206.79 315.62,184.95 300.34,184.95 299.31,181.78 284.76,181.78 284.76,184.95 "
             style="fill:#ffffff"
             id="polygon91465" />
          <polygon
             points="284.76,251.2 284.76,254.38 315.62,254.38 315.62,232.54 300.34,232.54 299.31,229.37 284.76,229.37 284.76,232.54 "
             style="fill:#ffffff"
             id="polygon91467" />
          <polygon
             points="284.76,298.79 284.76,301.97 315.62,301.97 315.62,280.13 300.34,280.13 299.31,276.96 284.76,276.96 284.76,280.13 "
             style="fill:#ffffff"
             id="polygon91469" />
          <polygon
             points="284.76,346.38 284.76,349.56 315.62,349.56 315.62,327.72 300.34,327.72 299.31,324.55 284.76,324.55 284.76,327.72 "
             style="fill:#ffffff"
             id="polygon91471" />
          <polygon
             points="284.76,393.97 284.76,397.15 315.62,397.15 315.62,375.31 300.34,375.31 299.31,372.14 284.76,372.14 284.76,375.31 "
             style="fill:#ffffff"
             id="polygon91473" />
          <polygon
             points="362.45,203.61 362.45,206.79 393.32,206.79 393.32,184.95 378.04,184.95 377,181.78 362.45,181.78 362.45,184.95 "
             style="fill:#ffffff"
             id="polygon91475" />
          <polygon
             points="421.94,184.95 421.94,203.61 421.94,206.79 452.8,206.79 452.8,184.95 437.52,184.95 436.49,181.78 421.94,181.78 "
             style="fill:#ffffff"
             id="polygon91477" />
          <polygon
             points="362.45,251.2 362.45,254.38 393.32,254.38 393.32,232.54 378.04,232.54 377,229.37 362.45,229.37 362.45,232.54 "
             style="fill:#ffffff"
             id="polygon91479" />
          <polygon
             points="421.94,298.79 421.94,301.97 452.8,301.97 452.8,280.13 437.52,280.13 436.49,276.96 421.94,276.96 421.94,280.13 "
             style="fill:#ffffff"
             id="polygon91481" />
          <polygon
             points="421.94,251.2 421.94,254.38 452.8,254.38 452.8,232.54 437.52,232.54 436.49,229.37 421.94,229.37 421.94,232.54 "
             style="fill:#ffffff"
             id="polygon91483" />
          <polygon
             points="362.45,298.79 362.45,301.97 393.32,301.97 393.32,280.13 378.04,280.13 377,276.96 362.45,276.96 362.45,280.13 "
             style="fill:#ffffff"
             id="polygon91485" />
          <polygon
             points="362.45,346.38 362.45,349.56 393.32,349.56 393.32,327.72 378.04,327.72 377,324.55 362.45,324.55 362.45,327.72 "
             style="fill:#ffffff"
             id="polygon91487" />
          <polygon
             points="421.94,346.38 421.94,349.56 452.8,349.56 452.8,327.72 437.52,327.72 436.49,324.55 421.94,324.55 421.94,327.72 "
             style="fill:#ffffff"
             id="polygon91489" />
          <polygon
             points="362.45,393.97 362.45,397.15 393.32,397.15 393.32,375.31 378.04,375.31 377,372.14 362.45,372.14 362.45,375.31 "
             style="fill:#ffffff"
             id="polygon91491" />
          <polygon
             points="421.94,393.97 421.94,397.15 452.8,397.15 452.8,375.31 437.52,375.31 436.49,372.14 421.94,372.14 421.94,375.31 "
             style="fill:#ffffff"
             id="polygon91493" />
        </g>
        <path
           d="m 342.59,200.25 h -2.82 a 0.7,0.7 0 1 1 0,-1.39 h 2.82 a 0.7,0.7 0 0 1 0,1.39 z m 0.69,2.53 a 0.69,0.69 0 0 0 -0.69,-0.7 h -2.82 a 0.7,0.7 0 1 0 0,1.39 h 2.82 a 0.69,0.69 0 0 0 0.69,-0.69 z m 0,3.22 a 0.7,0.7 0 0 0 -0.69,-0.7 h -2.82 a 0.7,0.7 0 0 0 -0.7,0.7 0.69,0.69 0 0 0 0.7,0.69 h 2.82 a 0.69,0.69 0 0 0 0.69,-0.69 z m 0,3.22 a 0.69,0.69 0 0 0 -0.69,-0.69 h -2.82 a 0.69,0.69 0 0 0 -0.7,0.69 0.7,0.7 0 0 0 0.7,0.7 h 2.82 a 0.7,0.7 0 0 0 0.69,-0.7 z m 0,3.22 a 0.69,0.69 0 0 0 -0.69,-0.69 h -2.82 a 0.7,0.7 0 1 0 0,1.39 h 2.82 a 0.69,0.69 0 0 0 0.69,-0.7 z m 0,3.22 a 0.69,0.69 0 0 0 -0.69,-0.69 h -2.82 a 0.7,0.7 0 1 0 0,1.39 h 2.82 a 0.69,0.69 0 0 0 0.69,-0.7 z m 0,3.22 a 0.69,0.69 0 0 0 -0.69,-0.69 h -2.82 a 0.7,0.7 0 1 0 0,1.39 h 2.82 a 0.69,0.69 0 0 0 0.69,-0.7 z m 0,3.22 a 0.69,0.69 0 0 0 -0.69,-0.69 h -2.82 a 0.7,0.7 0 1 0 0,1.39 h 2.82 a 0.69,0.69 0 0 0 0.69,-0.7 z m 10.54,-22.54 a 0.69,0.69 0 0 0 -0.69,-0.7 h -7.4 a 0.7,0.7 0 0 0 0,1.39 h 7.4 a 0.69,0.69 0 0 0 0.69,-0.69 z m 0,3.22 a 0.69,0.69 0 0 0 -0.69,-0.7 h -7.4 a 0.7,0.7 0 0 0 0,1.39 h 7.4 a 0.69,0.69 0 0 0 0.69,-0.69 z m 0,3.22 a 0.7,0.7 0 0 0 -0.69,-0.7 h -7.4 a 0.7,0.7 0 0 0 -0.69,0.7 0.69,0.69 0 0 0 0.69,0.69 h 7.4 a 0.69,0.69 0 0 0 0.69,-0.69 z m 0,3.22 a 0.69,0.69 0 0 0 -0.69,-0.69 h -7.4 a 0.69,0.69 0 0 0 -0.69,0.69 0.7,0.7 0 0 0 0.69,0.7 h 7.4 a 0.7,0.7 0 0 0 0.69,-0.7 z m 0,3.22 a 0.69,0.69 0 0 0 -0.69,-0.69 h -7.4 a 0.7,0.7 0 0 0 0,1.39 h 7.4 a 0.69,0.69 0 0 0 0.69,-0.7 z m 8.86,3.22 A 0.69,0.69 0 0 0 362,215 h -7.4 a 0.7,0.7 0 1 0 0,1.39 h 7.4 a 0.69,0.69 0 0 0 0.68,-0.73 z m 0,3.22 a 0.69,0.69 0 0 0 -0.69,-0.69 h -7.4 a 0.7,0.7 0 1 0 0,1.39 H 362 a 0.69,0.69 0 0 0 0.68,-0.7 z m 0,3.22 a 0.69,0.69 0 0 0 -0.69,-0.69 h -7.4 a 0.7,0.7 0 1 0 0,1.39 H 362 a 0.69,0.69 0 0 0 0.68,-0.7 z m -5.6,-22.54 a 0.81,0.81 0 1 0 -0.81,0.8 0.81,0.81 0 0 0 0.81,-0.8 z m 2.42,0 a 0.81,0.81 0 0 0 -0.81,-0.81 0.81,0.81 0 1 0 0.81,0.81 z m 2.41,0 a 0.81,0.81 0 1 0 -0.8,0.8 0.8,0.8 0 0 0 0.8,-0.8 z m 2.42,0 a 0.81,0.81 0 1 0 -0.81,0.8 0.81,0.81 0 0 0 0.81,-0.8 z m 2.41,0 a 0.81,0.81 0 1 0 -0.8,0.8 0.8,0.8 0 0 0 0.8,-0.8 z m 2.42,0 a 0.81,0.81 0 1 0 -0.81,0.8 0.81,0.81 0 0 0 0.81,-0.8 z M 357.08,206 a 0.81,0.81 0 1 0 -0.81,0.81 0.81,0.81 0 0 0 0.81,-0.81 z m 2.42,0 a 0.82,0.82 0 0 0 -0.81,-0.81 0.81,0.81 0 0 0 0,1.62 0.82,0.82 0 0 0 0.81,-0.81 z m 2.41,0 a 0.81,0.81 0 1 0 -0.8,0.81 0.81,0.81 0 0 0 0.8,-0.81 z m 2.42,0 a 0.81,0.81 0 1 0 -0.81,0.81 0.81,0.81 0 0 0 0.81,-0.81 z m 2.41,0 a 0.81,0.81 0 1 0 -0.8,0.81 0.81,0.81 0 0 0 0.8,-0.81 z m 2.42,0 a 0.81,0.81 0 1 0 -0.81,0.81 0.81,0.81 0 0 0 0.81,-0.81 z m -3.83,9.26 a 0.81,0.81 0 1 0 -0.8,0.81 0.81,0.81 0 0 0 0.8,-0.81 z m 2.42,0 a 0.81,0.81 0 1 0 -0.81,0.81 0.81,0.81 0 0 0 0.81,-0.81 z m 2.41,0 a 0.81,0.81 0 1 0 -0.8,0.81 0.81,0.81 0 0 0 0.8,-0.81 z m 2.42,0 a 0.81,0.81 0 1 0 -0.81,0.81 0.81,0.81 0 0 0 0.81,-0.81 z m 2.42,0 a 0.81,0.81 0 1 0 -0.81,0.81 0.81,0.81 0 0 0 0.81,-0.81 z m 2.41,0 a 0.81,0.81 0 1 0 -0.8,0.81 0.81,0.81 0 0 0 0.8,-0.81 z m -12.08,6.64 a 0.81,0.81 0 1 0 -0.8,0.81 0.8,0.8 0 0 0 0.8,-0.81 z m 2.42,0 a 0.81,0.81 0 1 0 -0.81,0.81 0.8,0.8 0 0 0 0.81,-0.81 z m 2.41,0 a 0.81,0.81 0 1 0 -0.8,0.81 0.8,0.8 0 0 0 0.8,-0.81 z m 2.42,0 a 0.81,0.81 0 1 0 -0.81,0.81 0.8,0.8 0 0 0 0.81,-0.81 z m 2.42,0 a 0.81,0.81 0 1 0 -0.81,0.81 0.8,0.8 0 0 0 0.81,-0.81 z m 2.41,0 a 0.81,0.81 0 1 0 -0.8,0.81 0.8,0.8 0 0 0 0.8,-0.81 z"
           style="fill:#282f6f"
           id="path91497" />
        <path
           d="m 342.59,226 h -2.82 a 0.7,0.7 0 1 1 0,-1.39 h 2.82 a 0.7,0.7 0 0 1 0,1.39 z m 0.69,2.52 a 0.69,0.69 0 0 0 -0.69,-0.69 h -2.82 a 0.7,0.7 0 1 0 0,1.39 h 2.82 a 0.69,0.69 0 0 0 0.69,-0.67 z m 0,3.22 a 0.69,0.69 0 0 0 -0.69,-0.69 h -2.82 a 0.7,0.7 0 1 0 0,1.39 h 2.82 a 0.69,0.69 0 0 0 0.69,-0.67 z m 0,3.22 a 0.69,0.69 0 0 0 -0.69,-0.69 h -2.82 a 0.7,0.7 0 1 0 0,1.39 h 2.82 a 0.69,0.69 0 0 0 0.69,-0.66 z m 0,3.23 a 0.69,0.69 0 0 0 -0.69,-0.7 h -2.82 a 0.7,0.7 0 1 0 0,1.39 h 2.82 a 0.69,0.69 0 0 0 0.69,-0.66 z m 0,3.22 a 0.69,0.69 0 0 0 -0.69,-0.7 h -2.82 a 0.7,0.7 0 1 0 0,1.39 h 2.82 a 0.69,0.69 0 0 0 0.69,-0.66 z m 0,3.22 a 0.69,0.69 0 0 0 -0.69,-0.7 h -2.82 a 0.7,0.7 0 1 0 0,1.39 h 2.82 a 0.69,0.69 0 0 0 0.69,-0.66 z m 0,3.22 a 0.69,0.69 0 0 0 -0.69,-0.7 h -2.82 a 0.7,0.7 0 1 0 0,1.39 h 2.82 a 0.69,0.69 0 0 0 0.69,-0.66 z m 10.54,-22.55 a 0.69,0.69 0 0 0 -0.69,-0.69 h -7.4 a 0.7,0.7 0 0 0 0,1.39 h 7.4 a 0.69,0.69 0 0 0 0.69,-0.67 z m 0,3.22 a 0.69,0.69 0 0 0 -0.69,-0.69 h -7.4 a 0.7,0.7 0 0 0 0,1.39 h 7.4 a 0.69,0.69 0 0 0 0.69,-0.67 z m 0,3.22 a 0.69,0.69 0 0 0 -0.69,-0.69 h -7.4 a 0.7,0.7 0 0 0 0,1.39 h 7.4 a 0.69,0.69 0 0 0 0.69,-0.67 z m 0,3.22 a 0.69,0.69 0 0 0 -0.69,-0.69 h -7.4 a 0.7,0.7 0 0 0 0,1.39 h 7.4 a 0.69,0.69 0 0 0 0.69,-0.66 z m 0,3.23 a 0.69,0.69 0 0 0 -0.69,-0.7 h -7.4 a 0.7,0.7 0 0 0 0,1.39 h 7.4 a 0.69,0.69 0 0 0 0.69,-0.66 z m 8.86,3.22 a 0.69,0.69 0 0 0 -0.69,-0.7 h -7.4 a 0.7,0.7 0 1 0 0,1.39 H 362 a 0.69,0.69 0 0 0 0.68,-0.66 z m 0,3.22 a 0.69,0.69 0 0 0 -0.69,-0.7 h -7.4 a 0.7,0.7 0 1 0 0,1.39 H 362 a 0.69,0.69 0 0 0 0.68,-0.66 z m 0,3.22 a 0.69,0.69 0 0 0 -0.69,-0.7 h -7.4 a 0.7,0.7 0 1 0 0,1.39 H 362 a 0.69,0.69 0 0 0 0.68,-0.66 z m -5.6,-22.55 a 0.81,0.81 0 1 0 -0.81,0.81 0.8,0.8 0 0 0 0.81,-0.78 z m 2.42,0 a 0.81,0.81 0 0 0 -0.81,-0.8 0.81,0.81 0 0 0 0,1.61 0.81,0.81 0 0 0 0.81,-0.78 z m 2.41,0 a 0.81,0.81 0 1 0 -0.8,0.81 0.8,0.8 0 0 0 0.8,-0.78 z m 2.42,0 a 0.81,0.81 0 1 0 -0.81,0.81 0.8,0.8 0 0 0 0.81,-0.78 z m 2.41,0 a 0.81,0.81 0 1 0 -0.8,0.81 0.8,0.8 0 0 0 0.8,-0.78 z m 2.42,0 a 0.81,0.81 0 1 0 -0.81,0.81 0.8,0.8 0 0 0 0.81,-0.78 z m -12.08,6.44 a 0.81,0.81 0 1 0 -0.81,0.81 0.8,0.8 0 0 0 0.81,-0.78 z m 2.42,0 a 0.81,0.81 0 0 0 -0.81,-0.8 0.81,0.81 0 0 0 0,1.61 0.81,0.81 0 0 0 0.81,-0.78 z m 2.41,0 a 0.81,0.81 0 1 0 -0.8,0.81 0.8,0.8 0 0 0 0.8,-0.78 z m 2.42,0 a 0.81,0.81 0 1 0 -0.81,0.81 0.8,0.8 0 0 0 0.81,-0.78 z m 2.41,0 a 0.81,0.81 0 1 0 -0.8,0.81 0.8,0.8 0 0 0 0.8,-0.78 z m 2.42,0 a 0.81,0.81 0 1 0 -0.81,0.81 0.8,0.8 0 0 0 0.81,-0.78 z m -3.83,9.26 a 0.81,0.81 0 1 0 -0.8,0.81 0.8,0.8 0 0 0 0.8,-0.81 z m 2.42,0 a 0.81,0.81 0 1 0 -0.81,0.81 0.8,0.8 0 0 0 0.81,-0.81 z m 2.41,0 a 0.81,0.81 0 1 0 -0.8,0.81 0.8,0.8 0 0 0 0.8,-0.81 z m 2.42,0 a 0.81,0.81 0 1 0 -0.81,0.81 0.8,0.8 0 0 0 0.81,-0.81 z m 2.42,0 a 0.81,0.81 0 1 0 -0.81,0.81 A 0.8,0.8 0 0 0 375,241 Z m 2.41,0 a 0.81,0.81 0 1 0 -0.8,0.81 0.8,0.8 0 0 0 0.8,-0.81 z m -12.08,6.65 a 0.81,0.81 0 1 0 -0.8,0.8 0.8,0.8 0 0 0 0.8,-0.77 z m 2.42,0 a 0.81,0.81 0 1 0 -0.81,0.8 0.81,0.81 0 0 0 0.81,-0.77 z m 2.41,0 a 0.81,0.81 0 1 0 -0.8,0.8 0.8,0.8 0 0 0 0.8,-0.77 z m 2.42,0 a 0.81,0.81 0 1 0 -0.81,0.8 0.81,0.81 0 0 0 0.81,-0.77 z m 2.42,0 a 0.81,0.81 0 1 0 -0.81,0.8 0.81,0.81 0 0 0 0.81,-0.77 z m 2.41,0 a 0.81,0.81 0 1 0 -0.8,0.8 0.8,0.8 0 0 0 0.8,-0.77 z"
           style="fill:#282f6f"
           id="path91499" />
        <path
           d="m 342.59,252.42 h -2.82 a 0.7,0.7 0 1 1 0,-1.39 h 2.82 a 0.7,0.7 0 0 1 0,1.39 z m 0.69,2.53 a 0.69,0.69 0 0 0 -0.69,-0.7 h -2.82 a 0.7,0.7 0 1 0 0,1.39 h 2.82 a 0.69,0.69 0 0 0 0.69,-0.64 z m 0,3.22 a 0.7,0.7 0 0 0 -0.69,-0.7 h -2.82 a 0.7,0.7 0 0 0 -0.7,0.7 0.69,0.69 0 0 0 0.7,0.69 h 2.82 a 0.69,0.69 0 0 0 0.69,-0.69 z m 0,3.22 a 0.69,0.69 0 0 0 -0.69,-0.69 h -2.82 a 0.69,0.69 0 0 0 -0.7,0.69 0.7,0.7 0 0 0 0.7,0.7 h 2.82 a 0.7,0.7 0 0 0 0.69,-0.7 z m 0,3.22 a 0.69,0.69 0 0 0 -0.69,-0.69 h -2.82 a 0.7,0.7 0 1 0 0,1.39 h 2.82 a 0.69,0.69 0 0 0 0.69,-0.7 z m 0,3.22 a 0.69,0.69 0 0 0 -0.69,-0.69 h -2.82 a 0.7,0.7 0 1 0 0,1.39 h 2.82 a 0.69,0.69 0 0 0 0.69,-0.7 z m 0,3.22 a 0.69,0.69 0 0 0 -0.69,-0.69 h -2.82 a 0.7,0.7 0 1 0 0,1.39 h 2.82 a 0.69,0.69 0 0 0 0.69,-0.7 z m 0,3.22 a 0.69,0.69 0 0 0 -0.69,-0.69 h -2.82 a 0.7,0.7 0 1 0 0,1.39 h 2.82 a 0.69,0.69 0 0 0 0.69,-0.7 z m 10.54,-22.54 a 0.69,0.69 0 0 0 -0.69,-0.7 h -7.4 a 0.7,0.7 0 0 0 0,1.39 h 7.4 a 0.69,0.69 0 0 0 0.69,-0.69 z m 0,3.22 a 0.69,0.69 0 0 0 -0.69,-0.7 h -7.4 a 0.7,0.7 0 0 0 0,1.39 h 7.4 a 0.69,0.69 0 0 0 0.69,-0.64 z m 0,3.22 a 0.7,0.7 0 0 0 -0.69,-0.7 h -7.4 a 0.7,0.7 0 0 0 -0.69,0.7 0.69,0.69 0 0 0 0.69,0.69 h 7.4 a 0.69,0.69 0 0 0 0.69,-0.69 z m 0,3.22 a 0.69,0.69 0 0 0 -0.69,-0.69 h -7.4 a 0.69,0.69 0 0 0 -0.69,0.69 0.7,0.7 0 0 0 0.69,0.7 h 7.4 a 0.7,0.7 0 0 0 0.69,-0.7 z m 0,3.22 a 0.69,0.69 0 0 0 -0.69,-0.69 h -7.4 a 0.7,0.7 0 0 0 0,1.39 h 7.4 a 0.69,0.69 0 0 0 0.69,-0.7 z m 8.86,3.22 a 0.69,0.69 0 0 0 -0.69,-0.69 h -7.4 a 0.7,0.7 0 1 0 0,1.39 H 362 a 0.69,0.69 0 0 0 0.68,-0.7 z m 0,3.22 a 0.69,0.69 0 0 0 -0.69,-0.69 h -7.4 a 0.7,0.7 0 1 0 0,1.39 H 362 a 0.69,0.69 0 0 0 0.68,-0.7 z m 0,3.22 a 0.69,0.69 0 0 0 -0.69,-0.69 h -7.4 a 0.7,0.7 0 1 0 0,1.39 H 362 a 0.69,0.69 0 0 0 0.68,-0.7 z m -5.6,-22.54 a 0.81,0.81 0 1 0 -0.81,0.8 0.81,0.81 0 0 0 0.81,-0.8 z m 2.42,0 a 0.81,0.81 0 0 0 -0.81,-0.81 0.81,0.81 0 1 0 0.81,0.81 z m 2.41,0 a 0.81,0.81 0 1 0 -0.8,0.8 0.8,0.8 0 0 0 0.8,-0.8 z m 2.42,0 a 0.81,0.81 0 1 0 -0.81,0.8 0.81,0.81 0 0 0 0.81,-0.8 z m 2.41,0 a 0.81,0.81 0 1 0 -0.8,0.8 0.8,0.8 0 0 0 0.8,-0.8 z m 2.42,0 a 0.81,0.81 0 1 0 -0.81,0.8 0.81,0.81 0 0 0 0.81,-0.8 z m -12.08,6.44 a 0.81,0.81 0 1 0 -0.81,0.8 0.81,0.81 0 0 0 0.81,-0.8 z m 2.42,0 a 0.81,0.81 0 0 0 -0.81,-0.81 0.81,0.81 0 1 0 0.81,0.81 z m 2.41,0 a 0.81,0.81 0 1 0 -0.8,0.8 0.8,0.8 0 0 0 0.8,-0.8 z m 2.42,0 a 0.81,0.81 0 1 0 -0.81,0.8 0.81,0.81 0 0 0 0.81,-0.8 z m 2.41,0 a 0.81,0.81 0 1 0 -0.8,0.8 0.8,0.8 0 0 0 0.8,-0.8 z m 2.42,0 a 0.81,0.81 0 1 0 -0.81,0.8 0.81,0.81 0 0 0 0.81,-0.8 z m -3.83,9.26 a 0.81,0.81 0 1 0 -0.8,0.8 0.8,0.8 0 0 0 0.8,-0.8 z m 2.42,0 a 0.81,0.81 0 1 0 -0.81,0.8 0.81,0.81 0 0 0 0.81,-0.8 z m 2.41,0 a 0.81,0.81 0 1 0 -0.8,0.8 0.8,0.8 0 0 0 0.8,-0.8 z m 2.42,0 a 0.81,0.81 0 1 0 -0.81,0.8 0.81,0.81 0 0 0 0.81,-0.8 z m 2.42,0 a 0.81,0.81 0 1 0 -0.81,0.8 0.81,0.81 0 0 0 0.81,-0.8 z m 2.41,0 a 0.81,0.81 0 1 0 -0.8,0.8 0.8,0.8 0 0 0 0.8,-0.8 z m -12.08,6.64 a 0.81,0.81 0 1 0 -0.8,0.81 0.8,0.8 0 0 0 0.8,-0.81 z m 2.42,0 a 0.81,0.81 0 1 0 -0.81,0.81 0.8,0.8 0 0 0 0.81,-0.81 z m 2.41,0 a 0.81,0.81 0 1 0 -0.8,0.81 0.8,0.8 0 0 0 0.8,-0.81 z m 2.42,0 a 0.81,0.81 0 1 0 -0.81,0.81 0.8,0.8 0 0 0 0.81,-0.81 z m 2.42,0 a 0.81,0.81 0 1 0 -0.81,0.81 0.8,0.8 0 0 0 0.81,-0.81 z m 2.41,0 a 0.81,0.81 0 1 0 -0.8,0.81 0.8,0.8 0 0 0 0.8,-0.81 z"
           style="fill:#282f6f"
           id="path91501" />
        <path
           d="M 385.85,200.25 H 383 a 0.7,0.7 0 1 1 0,-1.39 h 2.81 a 0.7,0.7 0 1 1 0,1.39 z m 0.7,2.53 a 0.7,0.7 0 0 0 -0.7,-0.7 H 383 a 0.7,0.7 0 1 0 0,1.39 h 2.81 a 0.69,0.69 0 0 0 0.74,-0.69 z m 0,3.22 a 0.7,0.7 0 0 0 -0.7,-0.7 H 383 a 0.7,0.7 0 0 0 -0.7,0.7 0.69,0.69 0 0 0 0.7,0.69 h 2.81 a 0.69,0.69 0 0 0 0.74,-0.69 z m 0,3.22 a 0.69,0.69 0 0 0 -0.7,-0.69 H 383 a 0.69,0.69 0 0 0 -0.7,0.69 0.7,0.7 0 0 0 0.7,0.7 h 2.81 a 0.7,0.7 0 0 0 0.74,-0.7 z m 0,3.22 a 0.69,0.69 0 0 0 -0.7,-0.69 H 383 a 0.7,0.7 0 1 0 0,1.39 h 2.81 a 0.7,0.7 0 0 0 0.74,-0.7 z m 0,3.22 a 0.69,0.69 0 0 0 -0.7,-0.69 H 383 a 0.7,0.7 0 1 0 0,1.39 h 2.81 a 0.7,0.7 0 0 0 0.74,-0.7 z m 0,3.22 a 0.69,0.69 0 0 0 -0.7,-0.69 H 383 a 0.7,0.7 0 1 0 0,1.39 h 2.81 a 0.7,0.7 0 0 0 0.74,-0.7 z m 0,3.22 a 0.69,0.69 0 0 0 -0.7,-0.69 H 383 a 0.7,0.7 0 1 0 0,1.39 h 2.81 a 0.7,0.7 0 0 0 0.74,-0.7 z m 10.54,-22.54 a 0.69,0.69 0 0 0 -0.69,-0.7 H 389 a 0.7,0.7 0 1 0 0,1.39 h 7.4 a 0.69,0.69 0 0 0 0.69,-0.69 z m 0,3.22 a 0.69,0.69 0 0 0 -0.69,-0.7 H 389 a 0.7,0.7 0 1 0 0,1.39 h 7.4 a 0.69,0.69 0 0 0 0.69,-0.69 z m 0,3.22 a 0.7,0.7 0 0 0 -0.69,-0.7 H 389 a 0.71,0.71 0 0 0 -0.7,0.7 0.7,0.7 0 0 0 0.7,0.69 h 7.4 a 0.69,0.69 0 0 0 0.69,-0.69 z m 0,3.22 a 0.69,0.69 0 0 0 -0.69,-0.69 H 389 a 0.7,0.7 0 0 0 -0.7,0.69 0.71,0.71 0 0 0 0.7,0.7 h 7.4 a 0.7,0.7 0 0 0 0.69,-0.7 z m 0,3.22 a 0.69,0.69 0 0 0 -0.69,-0.69 H 389 a 0.7,0.7 0 1 0 0,1.39 h 7.4 a 0.69,0.69 0 0 0 0.69,-0.7 z m 8.86,3.22 a 0.69,0.69 0 0 0 -0.69,-0.69 h -7.4 a 0.7,0.7 0 1 0 0,1.39 h 7.4 a 0.69,0.69 0 0 0 0.74,-0.7 z m 0,3.22 a 0.69,0.69 0 0 0 -0.69,-0.69 h -7.4 a 0.7,0.7 0 1 0 0,1.39 h 7.4 a 0.69,0.69 0 0 0 0.74,-0.7 z m 0,3.22 a 0.69,0.69 0 0 0 -0.69,-0.69 h -7.4 a 0.7,0.7 0 1 0 0,1.39 h 7.4 a 0.69,0.69 0 0 0 0.74,-0.7 z m -5.6,-22.54 a 0.81,0.81 0 1 0 -0.81,0.8 0.81,0.81 0 0 0 0.81,-0.8 z m 2.41,0 a 0.81,0.81 0 1 0 -0.8,0.8 0.8,0.8 0 0 0 0.8,-0.8 z m 2.42,0 a 0.81,0.81 0 1 0 -0.81,0.8 0.81,0.81 0 0 0 0.81,-0.8 z m 2.42,0 a 0.81,0.81 0 1 0 -0.81,0.8 0.81,0.81 0 0 0 0.81,-0.8 z m 2.41,0 a 0.81,0.81 0 1 0 -0.8,0.8 0.8,0.8 0 0 0 0.79,-0.8 z m 2.42,0 a 0.81,0.81 0 1 0 -0.81,0.8 0.81,0.81 0 0 0 0.81,-0.8 z M 400.35,206 a 0.81,0.81 0 1 0 -0.81,0.81 0.81,0.81 0 0 0 0.81,-0.81 z m 2.41,0 a 0.81,0.81 0 1 0 -0.8,0.81 0.81,0.81 0 0 0 0.8,-0.81 z m 2.42,0 a 0.81,0.81 0 1 0 -0.81,0.81 0.81,0.81 0 0 0 0.81,-0.81 z m 2.42,0 a 0.81,0.81 0 1 0 -0.81,0.81 0.81,0.81 0 0 0 0.81,-0.81 z m 2.41,0 a 0.81,0.81 0 1 0 -0.8,0.81 A 0.81,0.81 0 0 0 410,206 Z m 2.42,0 a 0.81,0.81 0 1 0 -0.81,0.81 0.81,0.81 0 0 0 0.81,-0.81 z m -3.83,9.26 a 0.81,0.81 0 1 0 -0.8,0.81 0.81,0.81 0 0 0 0.8,-0.81 z m 2.42,0 a 0.81,0.81 0 1 0 -0.81,0.81 0.81,0.81 0 0 0 0.79,-0.81 z m 2.41,0 a 0.81,0.81 0 1 0 -0.8,0.81 0.81,0.81 0 0 0 0.8,-0.81 z m 2.42,0 a 0.81,0.81 0 1 0 -0.81,0.81 0.81,0.81 0 0 0 0.81,-0.81 z m 2.41,0 a 0.81,0.81 0 1 0 -0.8,0.81 0.81,0.81 0 0 0 0.8,-0.81 z m 2.42,0 a 0.81,0.81 0 1 0 -0.8,0.81 0.81,0.81 0 0 0 0.8,-0.81 z m -12.08,6.64 a 0.81,0.81 0 1 0 -0.8,0.81 0.8,0.8 0 0 0 0.8,-0.81 z m 2.42,0 a 0.81,0.81 0 1 0 -0.81,0.81 0.8,0.8 0 0 0 0.79,-0.81 z m 2.41,0 a 0.81,0.81 0 1 0 -0.8,0.81 0.8,0.8 0 0 0 0.8,-0.81 z m 2.42,0 a 0.81,0.81 0 1 0 -0.81,0.81 0.8,0.8 0 0 0 0.81,-0.81 z m 2.41,0 a 0.81,0.81 0 1 0 -0.8,0.81 0.8,0.8 0 0 0 0.8,-0.81 z m 2.42,0 a 0.81,0.81 0 1 0 -0.8,0.81 0.8,0.8 0 0 0 0.8,-0.81 z"
           style="fill:#282f6f"
           id="path91503" />
        <path
           d="M 385.85,226.65 H 383 a 0.7,0.7 0 1 1 0,-1.39 h 2.81 a 0.7,0.7 0 1 1 0,1.39 z m 0.7,2.53 a 0.7,0.7 0 0 0 -0.7,-0.7 H 383 a 0.7,0.7 0 1 0 0,1.39 h 2.81 a 0.69,0.69 0 0 0 0.74,-0.69 z m 0,3.22 a 0.7,0.7 0 0 0 -0.7,-0.7 H 383 a 0.7,0.7 0 1 0 0,1.39 h 2.81 a 0.69,0.69 0 0 0 0.74,-0.69 z m 0,3.22 a 0.7,0.7 0 0 0 -0.7,-0.7 H 383 a 0.7,0.7 0 1 0 0,1.39 h 2.81 a 0.69,0.69 0 0 0 0.74,-0.69 z m 0,3.22 a 0.7,0.7 0 0 0 -0.7,-0.7 H 383 a 0.7,0.7 0 1 0 0,1.39 h 2.81 a 0.69,0.69 0 0 0 0.74,-0.69 z m 0,3.22 a 0.7,0.7 0 0 0 -0.7,-0.7 H 383 a 0.7,0.7 0 1 0 0,1.39 h 2.81 a 0.69,0.69 0 0 0 0.74,-0.69 z m 0,3.22 a 0.7,0.7 0 0 0 -0.7,-0.7 H 383 a 0.7,0.7 0 0 0 -0.7,0.7 0.69,0.69 0 0 0 0.7,0.69 h 2.81 a 0.69,0.69 0 0 0 0.74,-0.69 z m 0,3.22 a 0.69,0.69 0 0 0 -0.7,-0.69 H 383 a 0.69,0.69 0 0 0 -0.7,0.69 0.7,0.7 0 0 0 0.7,0.7 h 2.81 a 0.7,0.7 0 0 0 0.74,-0.7 z M 397.09,226 a 0.69,0.69 0 0 0 -0.69,-0.69 H 389 a 0.7,0.7 0 1 0 0,1.39 h 7.4 a 0.69,0.69 0 0 0 0.69,-0.7 z m 0,3.23 a 0.69,0.69 0 0 0 -0.69,-0.7 H 389 a 0.7,0.7 0 1 0 0,1.39 h 7.4 a 0.69,0.69 0 0 0 0.69,-0.74 z m 0,3.22 a 0.69,0.69 0 0 0 -0.69,-0.7 H 389 a 0.7,0.7 0 1 0 0,1.39 h 7.4 a 0.69,0.69 0 0 0 0.69,-0.74 z m 0,3.22 a 0.69,0.69 0 0 0 -0.69,-0.7 H 389 a 0.7,0.7 0 1 0 0,1.39 h 7.4 a 0.69,0.69 0 0 0 0.69,-0.74 z m 0,3.22 a 0.69,0.69 0 0 0 -0.69,-0.7 H 389 a 0.7,0.7 0 1 0 0,1.39 h 7.4 a 0.69,0.69 0 0 0 0.69,-0.74 z m 8.86,3.22 a 0.69,0.69 0 0 0 -0.69,-0.7 h -7.4 a 0.7,0.7 0 1 0 0,1.39 h 7.4 a 0.69,0.69 0 0 0 0.74,-0.74 z m 0,3.22 a 0.7,0.7 0 0 0 -0.69,-0.7 h -7.4 a 0.7,0.7 0 0 0 -0.7,0.7 0.69,0.69 0 0 0 0.7,0.69 h 7.4 a 0.69,0.69 0 0 0 0.74,-0.74 z m 0,3.22 a 0.69,0.69 0 0 0 -0.69,-0.69 h -7.4 a 0.69,0.69 0 0 0 -0.7,0.69 0.7,0.7 0 0 0 0.7,0.7 h 7.4 A 0.7,0.7 0 0 0 406,248.5 Z M 400.35,226 a 0.81,0.81 0 1 0 -0.81,0.81 0.8,0.8 0 0 0 0.81,-0.81 z m 2.41,0 a 0.81,0.81 0 1 0 -0.8,0.81 0.8,0.8 0 0 0 0.8,-0.81 z m 2.42,0 a 0.81,0.81 0 1 0 -0.81,0.81 0.8,0.8 0 0 0 0.81,-0.81 z m 2.42,0 a 0.81,0.81 0 1 0 -0.81,0.81 0.8,0.8 0 0 0 0.81,-0.81 z m 2.41,0 a 0.81,0.81 0 1 0 -0.8,0.81 A 0.8,0.8 0 0 0 410,226 Z m 2.42,0 a 0.81,0.81 0 1 0 -0.81,0.81 0.8,0.8 0 0 0 0.81,-0.81 z m -12.08,6.45 a 0.81,0.81 0 1 0 -0.81,0.8 0.81,0.81 0 0 0 0.81,-0.85 z m 2.41,0 a 0.81,0.81 0 1 0 -0.8,0.8 0.8,0.8 0 0 0 0.8,-0.85 z m 2.42,0 a 0.81,0.81 0 1 0 -0.81,0.8 0.81,0.81 0 0 0 0.81,-0.85 z m 2.42,0 a 0.81,0.81 0 1 0 -0.81,0.8 0.81,0.81 0 0 0 0.81,-0.85 z m 2.41,0 a 0.81,0.81 0 1 0 -0.8,0.8 0.8,0.8 0 0 0 0.79,-0.85 z m 2.42,0 a 0.81,0.81 0 1 0 -0.81,0.8 0.81,0.81 0 0 0 0.81,-0.85 z m -3.83,9.26 a 0.81,0.81 0 1 0 -0.8,0.8 0.8,0.8 0 0 0 0.8,-0.85 z m 2.42,0 a 0.81,0.81 0 1 0 -0.81,0.8 0.81,0.81 0 0 0 0.79,-0.85 z m 2.41,0 a 0.81,0.81 0 1 0 -0.8,0.8 0.8,0.8 0 0 0 0.8,-0.85 z m 2.42,0 a 0.81,0.81 0 1 0 -0.81,0.8 0.81,0.81 0 0 0 0.81,-0.85 z m 2.41,0 a 0.81,0.81 0 1 0 -0.8,0.8 0.8,0.8 0 0 0 0.8,-0.85 z m 2.42,0 a 0.81,0.81 0 1 0 -0.8,0.8 0.8,0.8 0 0 0 0.8,-0.85 z m -12.08,6.59 a 0.81,0.81 0 1 0 -0.8,0.8 0.8,0.8 0 0 0 0.8,-0.8 z m 2.42,0 a 0.81,0.81 0 1 0 -0.81,0.8 0.81,0.81 0 0 0 0.79,-0.8 z m 2.41,0 a 0.81,0.81 0 1 0 -0.8,0.8 0.8,0.8 0 0 0 0.8,-0.8 z m 2.42,0 a 0.81,0.81 0 1 0 -0.81,0.8 0.81,0.81 0 0 0 0.81,-0.8 z m 2.41,0 a 0.81,0.81 0 1 0 -0.8,0.8 0.8,0.8 0 0 0 0.8,-0.8 z m 2.42,0 a 0.81,0.81 0 1 0 -0.8,0.8 0.8,0.8 0 0 0 0.8,-0.8 z"
           style="fill:#282f6f"
           id="path91505" />
        <path
           d="m 88,200.25 h -2.82 a 0.7,0.7 0 0 1 0,-1.39 H 88 a 0.7,0.7 0 0 1 0,1.39 z m 0.69,2.53 A 0.69,0.69 0 0 0 88,202.08 h -2.82 a 0.7,0.7 0 0 0 0,1.39 H 88 a 0.69,0.69 0 0 0 0.69,-0.69 z m 0,3.22 A 0.7,0.7 0 0 0 88,205.3 h -2.82 a 0.7,0.7 0 0 0 -0.69,0.7 0.69,0.69 0 0 0 0.69,0.69 H 88 A 0.69,0.69 0 0 0 88.69,206 Z m 0,3.22 A 0.69,0.69 0 0 0 88,208.53 h -2.82 a 0.69,0.69 0 0 0 -0.69,0.69 0.7,0.7 0 0 0 0.69,0.7 H 88 a 0.7,0.7 0 0 0 0.69,-0.7 z m 0,3.22 A 0.69,0.69 0 0 0 88,211.75 h -2.82 a 0.7,0.7 0 0 0 0,1.39 H 88 a 0.69,0.69 0 0 0 0.69,-0.7 z m 0,3.22 A 0.69,0.69 0 0 0 88,215 h -2.82 a 0.7,0.7 0 0 0 0,1.39 H 88 a 0.69,0.69 0 0 0 0.69,-0.73 z m 0,3.22 A 0.69,0.69 0 0 0 88,218.19 h -2.82 a 0.7,0.7 0 0 0 0,1.39 H 88 a 0.69,0.69 0 0 0 0.69,-0.7 z m 0,3.22 A 0.69,0.69 0 0 0 88,221.41 h -2.82 a 0.7,0.7 0 0 0 0,1.39 H 88 a 0.69,0.69 0 0 0 0.69,-0.7 z m 10.55,-22.54 a 0.7,0.7 0 0 0 -0.7,-0.7 h -7.39 a 0.7,0.7 0 1 0 0,1.39 h 7.39 a 0.69,0.69 0 0 0 0.7,-0.69 z m 0,3.22 a 0.7,0.7 0 0 0 -0.7,-0.7 h -7.39 a 0.7,0.7 0 1 0 0,1.39 h 7.39 a 0.69,0.69 0 0 0 0.7,-0.69 z m 0,3.22 a 0.7,0.7 0 0 0 -0.7,-0.7 h -7.39 a 0.7,0.7 0 0 0 -0.7,0.7 0.69,0.69 0 0 0 0.7,0.69 h 7.39 a 0.69,0.69 0 0 0 0.7,-0.69 z m 0,3.22 a 0.69,0.69 0 0 0 -0.7,-0.69 h -7.39 a 0.69,0.69 0 0 0 -0.7,0.69 0.7,0.7 0 0 0 0.7,0.7 h 7.39 a 0.7,0.7 0 0 0 0.7,-0.7 z m 0,3.22 a 0.69,0.69 0 0 0 -0.7,-0.69 h -7.39 a 0.7,0.7 0 1 0 0,1.39 h 7.39 a 0.7,0.7 0 0 0 0.7,-0.7 z m 8.86,3.22 a 0.7,0.7 0 0 0 -0.7,-0.69 H 100 a 0.7,0.7 0 0 0 0,1.39 h 7.4 a 0.7,0.7 0 0 0 0.7,-0.7 z m 0,3.22 a 0.7,0.7 0 0 0 -0.7,-0.69 H 100 a 0.7,0.7 0 0 0 0,1.39 h 7.4 a 0.7,0.7 0 0 0 0.7,-0.7 z m 0,3.22 a 0.7,0.7 0 0 0 -0.7,-0.69 H 100 a 0.7,0.7 0 0 0 0,1.39 h 7.4 a 0.7,0.7 0 0 0 0.7,-0.7 z m -5.61,-22.54 a 0.81,0.81 0 1 0 -0.8,0.8 0.8,0.8 0 0 0 0.8,-0.8 z m 2.42,0 a 0.81,0.81 0 1 0 -0.81,0.8 0.81,0.81 0 0 0 0.81,-0.8 z m 2.42,0 a 0.81,0.81 0 0 0 -0.81,-0.81 0.81,0.81 0 1 0 0.81,0.81 z m 2.41,0 a 0.81,0.81 0 1 0 -0.8,0.8 0.8,0.8 0 0 0 0.8,-0.8 z m 2.42,0 a 0.81,0.81 0 1 0 -0.81,0.8 0.81,0.81 0 0 0 0.81,-0.8 z m 2.41,0 a 0.81,0.81 0 1 0 -0.8,0.8 0.8,0.8 0 0 0 0.8,-0.8 z M 102.49,206 a 0.81,0.81 0 1 0 -0.8,0.81 0.81,0.81 0 0 0 0.8,-0.81 z m 2.42,0 a 0.81,0.81 0 1 0 -0.81,0.81 0.81,0.81 0 0 0 0.81,-0.81 z m 2.42,0 a 0.82,0.82 0 0 0 -0.81,-0.81 0.81,0.81 0 0 0 0,1.62 0.82,0.82 0 0 0 0.81,-0.81 z m 2.41,0 a 0.81,0.81 0 1 0 -0.8,0.81 0.81,0.81 0 0 0 0.8,-0.81 z m 2.42,0 a 0.81,0.81 0 1 0 -0.81,0.81 0.81,0.81 0 0 0 0.81,-0.81 z m 2.41,0 a 0.81,0.81 0 1 0 -0.8,0.81 0.81,0.81 0 0 0 0.8,-0.81 z m -3.82,9.26 a 0.81,0.81 0 1 0 -0.81,0.81 0.81,0.81 0 0 0 0.81,-0.81 z m 2.41,0 a 0.81,0.81 0 1 0 -0.8,0.81 0.81,0.81 0 0 0 0.8,-0.81 z m 2.42,0 a 0.81,0.81 0 1 0 -0.81,0.81 0.81,0.81 0 0 0 0.81,-0.81 z m 2.41,0 a 0.81,0.81 0 1 0 -0.8,0.81 0.81,0.81 0 0 0 0.81,-0.81 z m 2.42,0 a 0.81,0.81 0 1 0 -0.81,0.81 0.81,0.81 0 0 0 0.81,-0.81 z m 2.42,0 a 0.81,0.81 0 1 0 -0.81,0.81 0.81,0.81 0 0 0 0.81,-0.81 z m -12.08,6.64 a 0.81,0.81 0 1 0 -0.81,0.81 0.8,0.8 0 0 0 0.81,-0.81 z m 2.41,0 a 0.81,0.81 0 1 0 -0.8,0.81 0.8,0.8 0 0 0 0.8,-0.81 z m 2.42,0 a 0.81,0.81 0 1 0 -0.81,0.81 0.8,0.8 0 0 0 0.81,-0.81 z m 2.41,0 a 0.81,0.81 0 1 0 -0.8,0.81 0.8,0.8 0 0 0 0.81,-0.81 z m 2.42,0 a 0.81,0.81 0 1 0 -0.81,0.81 0.8,0.8 0 0 0 0.81,-0.81 z m 2.42,0 a 0.81,0.81 0 1 0 -0.81,0.81 0.8,0.8 0 0 0 0.81,-0.81 z"
           style="fill:#282f6f"
           id="path91507" />
        <path
           d="m 88,226 h -2.82 a 0.7,0.7 0 0 1 0,-1.39 H 88 a 0.7,0.7 0 0 1 0,1.39 z m 0.69,2.52 A 0.69,0.69 0 0 0 88,227.83 h -2.82 a 0.7,0.7 0 0 0 0,1.39 H 88 a 0.69,0.69 0 0 0 0.69,-0.67 z m 0,3.22 A 0.69,0.69 0 0 0 88,231.05 h -2.82 a 0.7,0.7 0 0 0 0,1.39 H 88 a 0.69,0.69 0 0 0 0.69,-0.67 z m 0,3.22 A 0.69,0.69 0 0 0 88,234.27 h -2.82 a 0.7,0.7 0 0 0 0,1.39 H 88 A 0.69,0.69 0 0 0 88.69,235 Z m 0,3.23 A 0.69,0.69 0 0 0 88,237.49 h -2.82 a 0.7,0.7 0 0 0 0,1.39 H 88 a 0.69,0.69 0 0 0 0.69,-0.66 z m 0,3.22 A 0.69,0.69 0 0 0 88,240.71 h -2.82 a 0.7,0.7 0 0 0 0,1.39 H 88 a 0.69,0.69 0 0 0 0.69,-0.66 z m 0,3.22 A 0.69,0.69 0 0 0 88,244 h -2.82 a 0.7,0.7 0 0 0 0,1.39 H 88 a 0.69,0.69 0 0 0 0.69,-0.73 z m 0,3.22 A 0.69,0.69 0 0 0 88,247.15 h -2.82 a 0.7,0.7 0 0 0 0,1.39 H 88 a 0.69,0.69 0 0 0 0.69,-0.66 z M 99.24,225.3 a 0.69,0.69 0 0 0 -0.7,-0.69 h -7.39 a 0.7,0.7 0 1 0 0,1.39 h 7.39 a 0.7,0.7 0 0 0 0.7,-0.67 z m 0,3.22 a 0.69,0.69 0 0 0 -0.7,-0.69 h -7.39 a 0.7,0.7 0 1 0 0,1.39 h 7.39 a 0.7,0.7 0 0 0 0.7,-0.67 z m 0,3.22 a 0.69,0.69 0 0 0 -0.7,-0.69 h -7.39 a 0.7,0.7 0 1 0 0,1.39 h 7.39 a 0.7,0.7 0 0 0 0.7,-0.67 z m 0,3.22 a 0.69,0.69 0 0 0 -0.7,-0.69 h -7.39 a 0.7,0.7 0 1 0 0,1.39 h 7.39 a 0.7,0.7 0 0 0 0.7,-0.66 z m 0,3.23 a 0.7,0.7 0 0 0 -0.7,-0.7 h -7.39 a 0.7,0.7 0 1 0 0,1.39 h 7.39 a 0.69,0.69 0 0 0 0.7,-0.66 z m 8.86,3.22 a 0.7,0.7 0 0 0 -0.7,-0.7 H 100 a 0.7,0.7 0 0 0 0,1.39 h 7.4 a 0.7,0.7 0 0 0 0.7,-0.66 z m 0,3.22 a 0.7,0.7 0 0 0 -0.7,-0.7 H 100 a 0.7,0.7 0 0 0 0,1.39 h 7.4 a 0.7,0.7 0 0 0 0.7,-0.66 z m 0,3.22 a 0.7,0.7 0 0 0 -0.7,-0.7 H 100 a 0.7,0.7 0 0 0 0,1.39 h 7.4 a 0.7,0.7 0 0 0 0.7,-0.66 z m -5.61,-22.55 a 0.81,0.81 0 1 0 -0.8,0.81 0.8,0.8 0 0 0 0.8,-0.78 z m 2.42,0 a 0.81,0.81 0 1 0 -0.81,0.81 0.8,0.8 0 0 0 0.81,-0.78 z m 2.42,0 a 0.81,0.81 0 0 0 -0.81,-0.8 0.81,0.81 0 0 0 0,1.61 0.81,0.81 0 0 0 0.81,-0.78 z m 2.41,0 a 0.81,0.81 0 1 0 -0.8,0.81 0.8,0.8 0 0 0 0.8,-0.78 z m 2.42,0 a 0.81,0.81 0 1 0 -0.81,0.81 0.8,0.8 0 0 0 0.81,-0.78 z m 2.41,0 a 0.81,0.81 0 1 0 -0.8,0.81 0.8,0.8 0 0 0 0.8,-0.78 z m -12.08,6.44 a 0.81,0.81 0 1 0 -0.8,0.81 0.8,0.8 0 0 0 0.8,-0.78 z m 2.42,0 a 0.81,0.81 0 1 0 -0.81,0.81 0.8,0.8 0 0 0 0.81,-0.78 z m 2.42,0 a 0.81,0.81 0 0 0 -0.81,-0.8 0.81,0.81 0 0 0 0,1.61 0.81,0.81 0 0 0 0.81,-0.78 z m 2.41,0 a 0.81,0.81 0 1 0 -0.8,0.81 0.8,0.8 0 0 0 0.8,-0.78 z m 2.42,0 a 0.81,0.81 0 1 0 -0.81,0.81 0.8,0.8 0 0 0 0.81,-0.78 z m 2.41,0 a 0.81,0.81 0 1 0 -0.8,0.81 0.8,0.8 0 0 0 0.8,-0.78 z m -3.82,9.26 a 0.81,0.81 0 1 0 -0.81,0.81 0.8,0.8 0 0 0 0.81,-0.81 z m 2.41,0 a 0.81,0.81 0 1 0 -0.8,0.81 0.8,0.8 0 0 0 0.8,-0.81 z m 2.42,0 a 0.81,0.81 0 1 0 -0.81,0.81 0.8,0.8 0 0 0 0.81,-0.81 z m 2.41,0 a 0.81,0.81 0 1 0 -0.8,0.81 A 0.8,0.8 0 0 0 118,241 Z m 2.42,0 a 0.81,0.81 0 1 0 -0.81,0.81 0.8,0.8 0 0 0 0.81,-0.81 z m 2.42,0 a 0.81,0.81 0 1 0 -0.81,0.81 0.8,0.8 0 0 0 0.81,-0.81 z m -12.08,6.65 a 0.81,0.81 0 1 0 -0.81,0.8 0.81,0.81 0 0 0 0.81,-0.77 z m 2.41,0 a 0.81,0.81 0 1 0 -0.8,0.8 0.8,0.8 0 0 0 0.8,-0.77 z m 2.42,0 a 0.81,0.81 0 1 0 -0.81,0.8 0.81,0.81 0 0 0 0.81,-0.77 z m 2.41,0 a 0.81,0.81 0 1 0 -0.8,0.8 0.8,0.8 0 0 0 0.81,-0.77 z m 2.42,0 a 0.81,0.81 0 1 0 -0.81,0.8 0.81,0.81 0 0 0 0.81,-0.77 z m 2.42,0 a 0.81,0.81 0 1 0 -0.81,0.8 0.81,0.81 0 0 0 0.81,-0.77 z"
           style="fill:#282f6f"
           id="path91509" />
        <path
           d="m 88,252.42 h -2.82 a 0.7,0.7 0 0 1 0,-1.39 H 88 a 0.7,0.7 0 0 1 0,1.39 z m 0.69,2.53 A 0.69,0.69 0 0 0 88,254.25 h -2.82 a 0.7,0.7 0 0 0 0,1.39 H 88 A 0.69,0.69 0 0 0 88.69,255 Z m 0,3.22 A 0.7,0.7 0 0 0 88,257.47 h -2.82 a 0.7,0.7 0 0 0 -0.69,0.7 0.69,0.69 0 0 0 0.69,0.69 H 88 a 0.69,0.69 0 0 0 0.69,-0.69 z m 0,3.22 A 0.69,0.69 0 0 0 88,260.7 h -2.82 a 0.69,0.69 0 0 0 -0.69,0.69 0.7,0.7 0 0 0 0.69,0.7 H 88 a 0.7,0.7 0 0 0 0.69,-0.7 z m 0,3.22 A 0.69,0.69 0 0 0 88,263.92 h -2.82 a 0.7,0.7 0 0 0 0,1.39 H 88 a 0.69,0.69 0 0 0 0.69,-0.7 z m 0,3.22 A 0.69,0.69 0 0 0 88,267.14 h -2.82 a 0.7,0.7 0 0 0 0,1.39 H 88 a 0.69,0.69 0 0 0 0.69,-0.7 z m 0,3.22 A 0.69,0.69 0 0 0 88,270.36 h -2.82 a 0.7,0.7 0 0 0 0,1.39 H 88 a 0.69,0.69 0 0 0 0.69,-0.7 z m 0,3.22 A 0.69,0.69 0 0 0 88,273.58 h -2.82 a 0.7,0.7 0 0 0 0,1.39 H 88 a 0.69,0.69 0 0 0 0.69,-0.7 z m 10.55,-22.54 a 0.7,0.7 0 0 0 -0.7,-0.7 h -7.39 a 0.7,0.7 0 1 0 0,1.39 h 7.39 a 0.69,0.69 0 0 0 0.7,-0.69 z m 0,3.22 a 0.7,0.7 0 0 0 -0.7,-0.7 h -7.39 a 0.7,0.7 0 1 0 0,1.39 h 7.39 a 0.69,0.69 0 0 0 0.7,-0.64 z m 0,3.22 a 0.7,0.7 0 0 0 -0.7,-0.7 h -7.39 a 0.7,0.7 0 0 0 -0.7,0.7 0.69,0.69 0 0 0 0.7,0.69 h 7.39 a 0.69,0.69 0 0 0 0.7,-0.69 z m 0,3.22 a 0.69,0.69 0 0 0 -0.7,-0.69 h -7.39 a 0.69,0.69 0 0 0 -0.7,0.69 0.7,0.7 0 0 0 0.7,0.7 h 7.39 a 0.7,0.7 0 0 0 0.7,-0.7 z m 0,3.22 a 0.69,0.69 0 0 0 -0.7,-0.69 h -7.39 a 0.7,0.7 0 1 0 0,1.39 h 7.39 a 0.7,0.7 0 0 0 0.7,-0.7 z m 8.86,3.22 a 0.7,0.7 0 0 0 -0.7,-0.69 H 100 a 0.7,0.7 0 0 0 0,1.39 h 7.4 a 0.7,0.7 0 0 0 0.7,-0.7 z m 0,3.22 a 0.7,0.7 0 0 0 -0.7,-0.69 H 100 a 0.7,0.7 0 0 0 0,1.39 h 7.4 a 0.7,0.7 0 0 0 0.7,-0.7 z m 0,3.22 a 0.7,0.7 0 0 0 -0.7,-0.69 H 100 a 0.7,0.7 0 0 0 0,1.39 h 7.4 a 0.7,0.7 0 0 0 0.7,-0.7 z m -5.61,-22.54 a 0.81,0.81 0 1 0 -0.8,0.8 0.8,0.8 0 0 0 0.8,-0.8 z m 2.42,0 a 0.81,0.81 0 1 0 -0.81,0.8 0.81,0.81 0 0 0 0.81,-0.8 z m 2.42,0 a 0.81,0.81 0 0 0 -0.81,-0.81 0.81,0.81 0 1 0 0.81,0.81 z m 2.41,0 a 0.81,0.81 0 1 0 -0.8,0.8 0.8,0.8 0 0 0 0.8,-0.8 z m 2.42,0 a 0.81,0.81 0 1 0 -0.81,0.8 0.81,0.81 0 0 0 0.81,-0.8 z m 2.41,0 a 0.81,0.81 0 1 0 -0.8,0.8 0.8,0.8 0 0 0 0.8,-0.8 z m -12.08,6.44 a 0.81,0.81 0 1 0 -0.8,0.8 0.8,0.8 0 0 0 0.8,-0.8 z m 2.42,0 a 0.81,0.81 0 1 0 -0.81,0.8 0.81,0.81 0 0 0 0.81,-0.8 z m 2.42,0 a 0.81,0.81 0 0 0 -0.81,-0.81 0.81,0.81 0 1 0 0.81,0.81 z m 2.41,0 a 0.81,0.81 0 1 0 -0.8,0.8 0.8,0.8 0 0 0 0.8,-0.8 z m 2.42,0 a 0.81,0.81 0 1 0 -0.81,0.8 0.81,0.81 0 0 0 0.81,-0.8 z m 2.41,0 a 0.81,0.81 0 1 0 -0.8,0.8 0.8,0.8 0 0 0 0.8,-0.8 z m -3.82,9.26 a 0.81,0.81 0 1 0 -0.81,0.8 0.81,0.81 0 0 0 0.81,-0.8 z m 2.41,0 a 0.81,0.81 0 1 0 -0.8,0.8 0.8,0.8 0 0 0 0.8,-0.8 z m 2.42,0 a 0.81,0.81 0 1 0 -0.81,0.8 0.81,0.81 0 0 0 0.81,-0.8 z m 2.41,0 a 0.81,0.81 0 1 0 -0.8,0.8 0.8,0.8 0 0 0 0.81,-0.8 z m 2.42,0 a 0.81,0.81 0 1 0 -0.81,0.8 0.81,0.81 0 0 0 0.81,-0.8 z m 2.42,0 a 0.81,0.81 0 1 0 -0.81,0.8 0.81,0.81 0 0 0 0.81,-0.8 z m -12.08,6.64 a 0.81,0.81 0 1 0 -0.81,0.81 0.8,0.8 0 0 0 0.81,-0.81 z m 2.41,0 a 0.81,0.81 0 1 0 -0.8,0.81 0.8,0.8 0 0 0 0.8,-0.81 z m 2.42,0 a 0.81,0.81 0 1 0 -0.81,0.81 0.8,0.8 0 0 0 0.81,-0.81 z m 2.41,0 a 0.81,0.81 0 1 0 -0.8,0.81 0.8,0.8 0 0 0 0.81,-0.81 z m 2.42,0 a 0.81,0.81 0 1 0 -0.81,0.81 0.8,0.8 0 0 0 0.81,-0.81 z m 2.42,0 a 0.81,0.81 0 1 0 -0.81,0.81 0.8,0.8 0 0 0 0.81,-0.81 z"
           style="fill:#282f6f"
           id="path91511" />
        <path
           d="m 131.27,200.25 h -2.82 a 0.7,0.7 0 0 1 0,-1.39 h 2.82 a 0.7,0.7 0 0 1 0,1.39 z m 0.69,2.53 a 0.69,0.69 0 0 0 -0.69,-0.7 h -2.82 a 0.7,0.7 0 0 0 0,1.39 h 2.82 a 0.69,0.69 0 0 0 0.73,-0.69 z m 0,3.22 a 0.7,0.7 0 0 0 -0.69,-0.7 h -2.82 a 0.7,0.7 0 0 0 -0.69,0.7 0.69,0.69 0 0 0 0.69,0.69 h 2.82 A 0.69,0.69 0 0 0 132,206 Z m 0,3.22 a 0.69,0.69 0 0 0 -0.69,-0.69 h -2.82 a 0.69,0.69 0 0 0 -0.69,0.69 0.7,0.7 0 0 0 0.69,0.7 h 2.82 a 0.7,0.7 0 0 0 0.73,-0.7 z m 0,3.22 a 0.69,0.69 0 0 0 -0.69,-0.69 h -2.82 a 0.7,0.7 0 0 0 0,1.39 h 2.82 a 0.69,0.69 0 0 0 0.73,-0.7 z m 0,3.22 a 0.69,0.69 0 0 0 -0.69,-0.69 h -2.82 a 0.7,0.7 0 0 0 0,1.39 h 2.82 a 0.69,0.69 0 0 0 0.73,-0.7 z m 0,3.22 a 0.69,0.69 0 0 0 -0.69,-0.69 h -2.82 a 0.7,0.7 0 0 0 0,1.39 h 2.82 a 0.69,0.69 0 0 0 0.73,-0.7 z m 0,3.22 a 0.69,0.69 0 0 0 -0.69,-0.69 h -2.82 a 0.7,0.7 0 0 0 0,1.39 h 2.82 a 0.69,0.69 0 0 0 0.73,-0.7 z m 10.55,-22.54 a 0.7,0.7 0 0 0 -0.7,-0.7 h -7.4 a 0.7,0.7 0 0 0 0,1.39 h 7.4 a 0.69,0.69 0 0 0 0.7,-0.69 z m 0,3.22 a 0.7,0.7 0 0 0 -0.7,-0.7 h -7.4 a 0.7,0.7 0 0 0 0,1.39 h 7.4 a 0.69,0.69 0 0 0 0.7,-0.69 z m 0,3.22 a 0.7,0.7 0 0 0 -0.7,-0.7 h -7.4 a 0.7,0.7 0 0 0 -0.69,0.7 0.69,0.69 0 0 0 0.69,0.69 h 7.4 a 0.69,0.69 0 0 0 0.7,-0.69 z m 0,3.22 a 0.69,0.69 0 0 0 -0.7,-0.69 h -7.4 a 0.69,0.69 0 0 0 -0.69,0.69 0.7,0.7 0 0 0 0.69,0.7 h 7.4 a 0.7,0.7 0 0 0 0.7,-0.7 z m 0,3.22 a 0.69,0.69 0 0 0 -0.7,-0.69 h -7.4 a 0.7,0.7 0 0 0 0,1.39 h 7.4 a 0.7,0.7 0 0 0 0.7,-0.7 z m 8.85,3.22 a 0.69,0.69 0 0 0 -0.69,-0.69 h -7.4 a 0.7,0.7 0 0 0 0,1.39 h 7.4 a 0.69,0.69 0 0 0 0.69,-0.7 z m 0,3.22 a 0.69,0.69 0 0 0 -0.69,-0.69 h -7.4 a 0.7,0.7 0 0 0 0,1.39 h 7.4 a 0.69,0.69 0 0 0 0.69,-0.7 z m 0,3.22 a 0.69,0.69 0 0 0 -0.69,-0.69 h -7.4 a 0.7,0.7 0 0 0 0,1.39 h 7.4 a 0.69,0.69 0 0 0 0.69,-0.7 z m -5.6,-22.54 a 0.81,0.81 0 1 0 -0.8,0.8 0.8,0.8 0 0 0 0.8,-0.8 z m 2.42,0 a 0.81,0.81 0 1 0 -0.81,0.8 0.81,0.81 0 0 0 0.81,-0.8 z m 2.41,0 a 0.81,0.81 0 1 0 -0.8,0.8 0.8,0.8 0 0 0 0.8,-0.8 z m 2.42,0 a 0.81,0.81 0 1 0 -0.81,0.8 0.81,0.81 0 0 0 0.8,-0.8 z m 2.42,0 a 0.81,0.81 0 1 0 -0.81,0.8 0.81,0.81 0 0 0 0.81,-0.8 z m 2.41,0 a 0.81,0.81 0 1 0 -0.8,0.8 0.8,0.8 0 0 0 0.8,-0.8 z M 145.76,206 a 0.81,0.81 0 1 0 -0.8,0.81 0.81,0.81 0 0 0 0.8,-0.81 z m 2.42,0 a 0.81,0.81 0 1 0 -0.81,0.81 0.81,0.81 0 0 0 0.81,-0.81 z m 2.41,0 a 0.81,0.81 0 1 0 -0.8,0.81 0.81,0.81 0 0 0 0.8,-0.81 z m 2.42,0 a 0.81,0.81 0 1 0 -0.81,0.81 0.81,0.81 0 0 0 0.8,-0.81 z m 2.42,0 a 0.81,0.81 0 1 0 -0.81,0.81 0.82,0.82 0 0 0 0.81,-0.81 z m 2.41,0 a 0.81,0.81 0 1 0 -0.8,0.81 0.81,0.81 0 0 0 0.8,-0.81 z m -3.84,9.26 a 0.81,0.81 0 1 0 -0.81,0.81 0.81,0.81 0 0 0 0.81,-0.81 z m 2.41,0 a 0.81,0.81 0 1 0 -0.8,0.81 0.81,0.81 0 0 0 0.82,-0.81 z m 2.42,0 a 0.81,0.81 0 1 0 -0.81,0.81 0.81,0.81 0 0 0 0.83,-0.81 z m 2.41,0 a 0.81,0.81 0 1 0 -0.8,0.81 0.81,0.81 0 0 0 0.82,-0.81 z m 2.42,0 a 0.81,0.81 0 1 0 -0.81,0.81 0.81,0.81 0 0 0 0.83,-0.81 z m 2.41,0 a 0.81,0.81 0 1 0 -0.8,0.81 0.81,0.81 0 0 0 0.82,-0.81 z M 154,221.9 a 0.81,0.81 0 1 0 -0.81,0.81 0.8,0.8 0 0 0 0.81,-0.81 z m 2.41,0 a 0.81,0.81 0 1 0 -0.8,0.81 0.8,0.8 0 0 0 0.82,-0.81 z m 2.42,0 a 0.81,0.81 0 1 0 -0.81,0.81 0.8,0.8 0 0 0 0.83,-0.81 z m 2.41,0 a 0.81,0.81 0 1 0 -0.8,0.81 0.8,0.8 0 0 0 0.82,-0.81 z m 2.42,0 a 0.81,0.81 0 1 0 -0.81,0.81 0.8,0.8 0 0 0 0.83,-0.81 z m 2.41,0 a 0.81,0.81 0 1 0 -0.8,0.81 0.8,0.8 0 0 0 0.82,-0.81 z"
           style="fill:#282f6f"
           id="path91513" />
        <path
           d="m 131.27,226.65 h -2.82 a 0.7,0.7 0 0 1 0,-1.39 h 2.82 a 0.7,0.7 0 0 1 0,1.39 z m 0.69,2.53 a 0.69,0.69 0 0 0 -0.69,-0.7 h -2.82 a 0.7,0.7 0 0 0 0,1.39 h 2.82 a 0.69,0.69 0 0 0 0.73,-0.69 z m 0,3.22 a 0.69,0.69 0 0 0 -0.69,-0.7 h -2.82 a 0.7,0.7 0 0 0 0,1.39 h 2.82 A 0.69,0.69 0 0 0 132,232.4 Z m 0,3.22 a 0.69,0.69 0 0 0 -0.69,-0.7 h -2.82 a 0.7,0.7 0 0 0 0,1.39 h 2.82 a 0.69,0.69 0 0 0 0.73,-0.69 z m 0,3.22 a 0.69,0.69 0 0 0 -0.69,-0.7 h -2.82 a 0.7,0.7 0 0 0 0,1.39 h 2.82 a 0.69,0.69 0 0 0 0.73,-0.69 z m 0,3.22 a 0.69,0.69 0 0 0 -0.69,-0.7 h -2.82 a 0.7,0.7 0 0 0 0,1.39 h 2.82 a 0.69,0.69 0 0 0 0.73,-0.69 z m 0,3.22 a 0.7,0.7 0 0 0 -0.69,-0.7 h -2.82 a 0.7,0.7 0 0 0 -0.69,0.7 0.69,0.69 0 0 0 0.69,0.69 h 2.82 a 0.69,0.69 0 0 0 0.73,-0.69 z m 0,3.22 a 0.69,0.69 0 0 0 -0.69,-0.69 h -2.82 a 0.69,0.69 0 0 0 -0.69,0.69 0.7,0.7 0 0 0 0.69,0.7 h 2.82 A 0.7,0.7 0 0 0 132,248.5 Z M 142.51,226 a 0.69,0.69 0 0 0 -0.7,-0.69 h -7.4 a 0.7,0.7 0 0 0 0,1.39 h 7.4 a 0.7,0.7 0 0 0 0.7,-0.7 z m 0,3.23 a 0.7,0.7 0 0 0 -0.7,-0.7 h -7.4 a 0.7,0.7 0 0 0 0,1.39 h 7.4 a 0.69,0.69 0 0 0 0.7,-0.74 z m 0,3.22 a 0.7,0.7 0 0 0 -0.7,-0.7 h -7.4 a 0.7,0.7 0 0 0 0,1.39 h 7.4 a 0.69,0.69 0 0 0 0.7,-0.74 z m 0,3.22 a 0.7,0.7 0 0 0 -0.7,-0.7 h -7.4 a 0.7,0.7 0 0 0 0,1.39 h 7.4 a 0.69,0.69 0 0 0 0.7,-0.74 z m 0,3.22 a 0.7,0.7 0 0 0 -0.7,-0.7 h -7.4 a 0.7,0.7 0 0 0 0,1.39 h 7.4 a 0.69,0.69 0 0 0 0.7,-0.74 z m 8.85,3.22 a 0.69,0.69 0 0 0 -0.69,-0.7 h -7.4 a 0.7,0.7 0 0 0 0,1.39 h 7.4 a 0.69,0.69 0 0 0 0.69,-0.74 z m 0,3.22 a 0.7,0.7 0 0 0 -0.69,-0.7 h -7.4 a 0.7,0.7 0 0 0 -0.69,0.7 0.69,0.69 0 0 0 0.69,0.69 h 7.4 a 0.69,0.69 0 0 0 0.69,-0.74 z m 0,3.22 a 0.69,0.69 0 0 0 -0.69,-0.69 h -7.4 a 0.69,0.69 0 0 0 -0.69,0.69 0.7,0.7 0 0 0 0.69,0.7 h 7.4 a 0.7,0.7 0 0 0 0.69,-0.75 z M 145.76,226 a 0.81,0.81 0 1 0 -0.8,0.81 0.8,0.8 0 0 0 0.8,-0.81 z m 2.42,0 a 0.81,0.81 0 1 0 -0.81,0.81 0.8,0.8 0 0 0 0.81,-0.81 z m 2.41,0 a 0.81,0.81 0 1 0 -0.8,0.81 0.8,0.8 0 0 0 0.8,-0.81 z m 2.42,0 a 0.81,0.81 0 1 0 -0.81,0.81 0.8,0.8 0 0 0 0.8,-0.81 z m 2.42,0 a 0.81,0.81 0 1 0 -0.81,0.81 0.81,0.81 0 0 0 0.81,-0.81 z m 2.41,0 a 0.81,0.81 0 1 0 -0.8,0.81 0.8,0.8 0 0 0 0.8,-0.81 z m -12.08,6.45 a 0.81,0.81 0 1 0 -0.8,0.8 0.8,0.8 0 0 0 0.8,-0.85 z m 2.42,0 a 0.81,0.81 0 1 0 -0.81,0.8 0.81,0.81 0 0 0 0.81,-0.85 z m 2.41,0 a 0.81,0.81 0 1 0 -0.8,0.8 0.8,0.8 0 0 0 0.8,-0.85 z m 2.42,0 a 0.81,0.81 0 1 0 -0.81,0.8 0.81,0.81 0 0 0 0.8,-0.85 z m 2.42,0 a 0.81,0.81 0 1 0 -0.81,0.8 0.81,0.81 0 0 0 0.81,-0.85 z m 2.41,0 a 0.81,0.81 0 1 0 -0.8,0.8 0.8,0.8 0 0 0 0.8,-0.85 z m -3.84,9.21 a 0.81,0.81 0 1 0 -0.81,0.8 0.81,0.81 0 0 0 0.81,-0.8 z m 2.41,0 a 0.81,0.81 0 1 0 -0.8,0.8 0.8,0.8 0 0 0 0.82,-0.8 z m 2.42,0 a 0.81,0.81 0 1 0 -0.81,0.8 0.81,0.81 0 0 0 0.83,-0.8 z m 2.41,0 a 0.81,0.81 0 1 0 -0.8,0.8 0.8,0.8 0 0 0 0.82,-0.8 z m 2.42,0 a 0.81,0.81 0 1 0 -0.81,0.8 0.81,0.81 0 0 0 0.83,-0.8 z m 2.41,0 a 0.81,0.81 0 1 0 -0.8,0.8 0.8,0.8 0 0 0 0.82,-0.8 z M 154,248.3 a 0.81,0.81 0 1 0 -0.81,0.8 0.81,0.81 0 0 0 0.81,-0.8 z m 2.41,0 a 0.81,0.81 0 1 0 -0.8,0.8 0.8,0.8 0 0 0 0.82,-0.8 z m 2.42,0 a 0.81,0.81 0 1 0 -0.81,0.8 0.81,0.81 0 0 0 0.83,-0.8 z m 2.41,0 a 0.81,0.81 0 1 0 -0.8,0.8 0.8,0.8 0 0 0 0.82,-0.8 z m 2.42,0 a 0.81,0.81 0 1 0 -0.81,0.8 0.81,0.81 0 0 0 0.83,-0.8 z m 2.41,0 a 0.81,0.81 0 1 0 -0.8,0.8 0.8,0.8 0 0 0 0.82,-0.8 z"
           style="fill:#282f6f"
           id="path91515" />
        <rect
           x="362.67999"
           y="297.22"
           width="26.16"
           height="21.51"
           style="fill:#ffffff;stroke:#8f8f8f;stroke-miterlimit:10"
           id="rect91517" />
        <polyline
           points="362.97 308.84 372.86 302.45 378.67 310.29 383.61 307.68 388.26 313.2"
           style="fill:none;stroke:#8f8f8f;stroke-miterlimit:10"
           id="polyline91519" />
        <path
           d="m 385.64,302.45 a 3.2,3.2 0 1 1 -3.19,-3.2 3.19,3.19 0 0 1 3.19,3.2 z"
           style="fill:none;stroke:#8f8f8f;stroke-miterlimit:10"
           id="path91521" />
        <rect
           x="372.81"
           y="309.66"
           width="26.16"
           height="21.51"
           style="fill:#ffffff;stroke:#8f8f8f;stroke-miterlimit:10"
           id="rect91523" />
        <polyline
           points="373.1 321.28 382.98 314.89 388.79 322.73 393.73 320.12 398.38 325.64"
           style="fill:none;stroke:#8f8f8f;stroke-miterlimit:10"
           id="polyline91525" />
        <path
           d="m 395.77,314.89 a 3.2,3.2 0 1 1 -3.2,-3.2 3.19,3.19 0 0 1 3.2,3.2 z"
           style="fill:none;stroke:#8f8f8f;stroke-miterlimit:10"
           id="path91527" />
        <rect
           x="379.20001"
           y="322.73001"
           width="26.16"
           height="21.51"
           style="fill:#ffffff;stroke:#8f8f8f;stroke-miterlimit:10"
           id="rect91529" />
        <polyline
           points="379.49 334.36 389.37 327.97 395.19 335.81 400.13 333.2 404.78 338.72"
           style="fill:none;stroke:#8f8f8f;stroke-miterlimit:10"
           id="polyline91531" />
        <path
           d="m 402.16,328 a 3.2,3.2 0 1 1 -3.19,-3.2 3.19,3.19 0 0 1 3.19,3.2 z"
           style="fill:none;stroke:#8f8f8f;stroke-miterlimit:10"
           id="path91533" />
        <line
           x1="89.050003"
           y1="346.89999"
           x2="144.88"
           y2="346.89999"
           style="fill:none;stroke:#8f8f8f;stroke-miterlimit:10"
           id="line91535" />
        <line
           x1="117"
           y1="346.89999"
           x2="117"
           y2="319.17001"
           style="fill:none;stroke:#8f8f8f;stroke-miterlimit:10"
           id="line91537" />
        <circle
           cx="89.050003"
           cy="346.89999"
           r="10.25"
           transform="rotate(-22.5,89.041746,346.88698)"
           style="fill:#ffffff;stroke:#8f8f8f;stroke-miterlimit:10"
           id="circle91539" />
        <path
           d="m 97.19,353.11 -8.42,-4.77 v -11.68 a 10.25,10.25 0 1 0 8.42,16.45 z"
           style="fill:#282f6f;stroke:#8f8f8f;stroke-miterlimit:10"
           id="path91541" />
        <path
           d="m 95.06,346.9 a 6,6 0 1 1 -6,-6 6,6 0 0 1 6,6 z"
           style="fill:#ffffff;stroke:#8f8f8f;stroke-miterlimit:10"
           id="path91543" />
        <circle
           cx="117"
           cy="346.89999"
           r="10.25"
           transform="matrix(0.92,-0.39,0.39,0.92,-127.27,74.21)"
           style="fill:#ffffff;stroke:#8f8f8f;stroke-miterlimit:10"
           id="circle91545" />
        <path
           d="m 125.14,353.11 -8.42,-4.77 v -11.68 a 10.25,10.25 0 1 0 8.42,16.45 z"
           style="fill:#282f6f;stroke:#8f8f8f;stroke-miterlimit:10"
           id="path91547" />
        <path
           d="m 123,346.9 a 6,6 0 1 1 -6,-6 6,6 0 0 1 6,6 z"
           style="fill:#ffffff;stroke:#8f8f8f;stroke-miterlimit:10"
           id="path91549" />
        <circle
           cx="144.95"
           cy="346.89999"
           r="10.25"
           transform="rotate(-76.04,144.96832,346.90146)"
           style="fill:#ffffff;stroke:#8f8f8f;stroke-miterlimit:10"
           id="circle91551" />
        <path
           d="m 153.09,353.11 -8.41,-4.77 v -11.68 a 10.25,10.25 0 1 0 8.41,16.45 z"
           style="fill:#282f6f;stroke:#8f8f8f;stroke-miterlimit:10"
           id="path91553" />
        <path
           d="m 151,346.9 a 6,6 0 1 1 -6,-6 6,6 0 0 1 6,6 z"
           style="fill:#ffffff;stroke:#8f8f8f;stroke-miterlimit:10"
           id="path91555" />
        <polygon
           points="105.06,293.64 105.06,318.69 87.16,318.69 87.16,298.16 91.87,293.64 "
           style="fill:#ffffff;stroke:#8f8f8f;stroke-linecap:round;stroke-linejoin:round"
           id="polygon91557" />
        <polygon
           points="92.03,293.64 87.16,298.16 92.03,298.16 "
           style="fill:#ffffff;stroke:#8f8f8f;stroke-linecap:round;stroke-linejoin:round"
           id="polygon91559" />
        <polygon
           points="124.63,293.64 124.63,318.69 106.73,318.69 106.73,298.16 111.44,293.64 "
           style="fill:#ffffff;stroke:#8f8f8f;stroke-linecap:round;stroke-linejoin:round"
           id="polygon91561" />
        <polygon
           points="111.6,293.64 106.73,298.16 111.6,298.16 "
           style="fill:#ffffff;stroke:#8f8f8f;stroke-linecap:round;stroke-linejoin:round"
           id="polygon91563" />
        <polygon
           points="144.2,293.64 144.2,318.69 126.3,318.69 126.3,298.16 131.01,293.64 "
           style="fill:#ffffff;stroke:#8f8f8f;stroke-linecap:round;stroke-linejoin:round"
           id="polygon91565" />
        <polygon
           points="131.17,293.64 126.3,298.16 131.17,298.16 "
           style="fill:#ffffff;stroke:#8f8f8f;stroke-linecap:round;stroke-linejoin:round"
           id="polygon91567" />
        <rect
           x="184.11"
           y="264.14999"
           width="4.1500001"
           height="12.14"
           style="fill:#282f6f"
           id="rect91569" />
        <rect
           x="191.14"
           y="254.25"
           width="4.1500001"
           height="22.040001"
           style="fill:#282f6f"
           id="rect91571" />
        <rect
           x="198.16"
           y="258.07999"
           width="4.1500001"
           height="18.209999"
           style="fill:#282f6f"
           id="rect91573" />
        <rect
           x="205.19"
           y="268.63"
           width="4.1500001"
           height="7.6700001"
           style="fill:#282f6f"
           id="rect91575" />
        <rect
           x="310.5"
           y="264.14999"
           width="4.1500001"
           height="12.14"
           style="fill:#282f6f"
           id="rect91577" />
        <rect
           x="317.53"
           y="254.25"
           width="4.1500001"
           height="22.040001"
           style="fill:#282f6f"
           id="rect91579" />
        <rect
           x="324.56"
           y="258.07999"
           width="4.1500001"
           height="18.209999"
           style="fill:#282f6f"
           id="rect91581" />
        <rect
           x="331.57999"
           y="268.63"
           width="4.1500001"
           height="7.6700001"
           style="fill:#282f6f"
           id="rect91583" />
      </g>
      <g
         id="g91699">
        <path
           d="M 337.38,322.9 293.7,302.56 c -6.19,-1.28 -12.38,-2.61 -18.57,-3.89 -4.64,-0.95 -9.82,-2.05 -14.78,-1.72 -5.71,0.39 -11.44,2.32 -17.08,3.32 -4.4,0.78 -8.84,1.39 -13.22,2.29 l -43.67,20.34 -47,96.33 h 238.67 z"
           style="fill:#ffffff;stroke:#263238;stroke-miterlimit:10"
           id="path91587" />
        <line
           x1="185.21001"
           y1="417.48999"
           x2="197.95"
           y2="357.85999"
           style="fill:none;stroke:#263238;stroke-miterlimit:10"
           id="line91589" />
        <line
           x1="195.22"
           y1="371.06"
           x2="192.03999"
           y2="351.94"
           style="fill:none;stroke:#263238;stroke-miterlimit:10"
           id="line91591" />
        <line
           x1="337.25"
           y1="417.48999"
           x2="324.51001"
           y2="357.85999"
           style="fill:none;stroke:#263238;stroke-miterlimit:10"
           id="line91593" />
        <line
           x1="327.23999"
           y1="371.06"
           x2="330.42999"
           y2="351.94"
           style="fill:none;stroke:#263238;stroke-miterlimit:10"
           id="line91595" />
        <path
           d="m 235.94,278.66 v 18.58 c 0,0 15.18,17.53 17.8,19.1 a 17.36,17.36 0 0 0 9.16,2.1 c 2.36,-0.26 12.83,-7.33 14.13,-8.9 1.3,-1.57 7.59,-13.35 7.59,-13.35 l -0.78,-19.63 z"
           style="fill:#9c9c9c;stroke:#263238;stroke-miterlimit:10"
           id="path91597" />
        <path
           d="m 235.88,280.93 c 0,0 15.76,19.89 22.61,20.16 7.22,0.28 25.08,-20.16 25.08,-20.16 z"
           style="fill:#263238"
           id="path91599" />
        <path
           d="m 232.28,251.7 c 0,0 -4.19,-4.19 -6.81,-0.26 -2.62,3.93 -2.09,6.8 1.57,12.56 3.66,5.76 7.07,4.71 7.86,2.09 0.79,-2.62 -2.62,-14.39 -2.62,-14.39 z"
           style="fill:#9c9c9c;stroke:#263238;stroke-miterlimit:10"
           id="path91601" />
        <path
           d="m 287.29,251.7 c 0,0 4.19,-4.19 6.81,-0.26 2.62,3.93 2.09,6.8 -1.57,12.56 -3.66,5.76 -7.07,4.71 -7.85,2.09 -0.78,-2.62 2.61,-14.39 2.61,-14.39 z"
           style="fill:#9c9c9c;stroke:#263238;stroke-miterlimit:10"
           id="path91603" />
        <path
           d="m 280.88,214 c -11.13,-7.16 -31.58,-7.29 -42.84,0 -8.9,5.76 -8.12,13.87 -7.85,28.27 0,0 2.35,32.71 3.92,36.38 1.18,2.74 11.45,10.18 16.54,13.74 a 11.24,11.24 0 0 0 6.41,2.06 c 0.73,0 1.52,0 2.33,0 0.81,0 1.59,0 2.32,0 a 11.25,11.25 0 0 0 6.34,-2 c 5.12,-3.54 15.6,-11 16.79,-13.79 1.58,-3.67 4,-36.38 4,-36.38 0.22,-14.4 1.01,-22.51 -7.96,-28.28 z"
           style="fill:#9c9c9c;stroke:#263238;stroke-miterlimit:10"
           id="path91605" />
        <path
           d="m 280.88,214 c -11.13,-7.16 -31.58,-7.29 -42.84,0 -8.9,5.76 -8.12,13.87 -7.85,28.27 0,0 0.21,2.92 0.54,7.11 l 1.29,-0.57 V 237 c 0,0 4.45,-2.88 5.76,-6.54 1.31,-3.66 2.35,-9.42 5.23,-10.47 2.88,-1.05 11,4.67 20.68,2.31 9.68,-2.36 11.77,-5.19 15.7,-0.48 3.93,4.71 3.4,11.25 5,13.61 l 3.14,4.71 -0.78,11.26 1.32,0.44 c 0.45,-5.48 0.75,-9.6 0.75,-9.6 0.24,-14.36 1.03,-22.47 -7.94,-28.24 z"
           style="fill:#263238;stroke:#263238;stroke-miterlimit:10"
           id="path91607" />
        <path
           d="m 256.57,236.37 a 7.9,7.9 0 0 0 -1.88,-0.35 110.54,110.54 0 0 0 -20.5,-0.17 c -3.65,0.31 -3.81,0.94 -2.82,4.06 a 30.12,30.12 0 0 1 0.8,6.16 9.09,9.09 0 0 0 2.2,5.68 8.63,8.63 0 0 0 5.41,2.07 38.34,38.34 0 0 0 7.41,-0.34 c 2.41,-0.28 5,-0.63 6.81,-2.2 1.81,-1.57 2.64,-4.26 2.89,-6.75 0.25,-2.49 0.15,-5.05 0.8,-7.48 a 3,3 0 0 0 -1.12,-0.68 z"
           style="fill:#ffffff;stroke:#263238;stroke-width:2px;stroke-linecap:round;stroke-linejoin:round"
           id="path91609" />
        <path
           d="m 263.26,236.37 a 7.9,7.9 0 0 1 1.88,-0.35 110.54,110.54 0 0 1 20.5,-0.17 c 3.65,0.31 3.81,0.94 2.82,4.06 a 30.12,30.12 0 0 0 -0.8,6.16 9.09,9.09 0 0 1 -2.2,5.68 8.63,8.63 0 0 1 -5.41,2.07 38.3,38.3 0 0 1 -7.41,-0.34 c -2.41,-0.28 -5,-0.63 -6.81,-2.2 -1.81,-1.57 -2.64,-4.26 -2.89,-6.75 -0.25,-2.49 -0.15,-5.05 -0.8,-7.48 a 3,3 0 0 1 1.12,-0.68 z"
           style="fill:#ffffff;stroke:#263238;stroke-width:2px;stroke-linecap:round;stroke-linejoin:round"
           id="path91611" />
        <line
           x1="257.69"
           y1="237.05"
           x2="261.32999"
           y2="237.05"
           style="fill:none;stroke:#263238;stroke-width:2px;stroke-linecap:round;stroke-linejoin:round"
           id="line91613" />
        <path
           d="m 257.67,241 c 0,0 2.35,-3.67 4.71,0"
           style="fill:none;stroke:#263238;stroke-width:2px;stroke-linecap:round;stroke-linejoin:round"
           id="path91615" />
        <path
           d="m 230.71,236.52 c 0,0 -2.36,5 0,16"
           style="fill:none;stroke:#263238;stroke-width:2px;stroke-linecap:round;stroke-linejoin:round"
           id="path91617" />
        <path
           d="m 288.79,236.52 c 0,0 2.35,5 0,16"
           style="fill:none;stroke:#263238;stroke-width:2px;stroke-linecap:round;stroke-linejoin:round"
           id="path91619" />
        <path
           d="m 238.56,232.85 c 0,0 8.61,-3.15 13.87,0.53"
           style="fill:none;stroke:#263238;stroke-width:2px;stroke-linecap:round;stroke-linejoin:round"
           id="path91621" />
        <path
           d="m 266.57,233.64 c 0,0 5.52,-5.88 12.3,-1.83"
           style="fill:none;stroke:#263238;stroke-width:2px;stroke-linecap:round;stroke-linejoin:round"
           id="path91623" />
        <path
           d="m 252.69,256.67 a 5.63,5.63 0 0 0 1.84,2.36 c 1,0.52 4.71,0.52 8.11,0.26 a 6.55,6.55 0 0 0 5,-3.14"
           style="fill:none;stroke:#263238;stroke-miterlimit:10"
           id="path91625" />
        <line
           x1="255.31"
           y1="267.66"
           x2="264.73001"
           y2="267.66"
           style="fill:none;stroke:#263238;stroke-miterlimit:10"
           id="line91627" />
        <path
           d="m 253,315.3 c 0,0 5,2.35 7.59,2.09 2.59,-0.26 6.8,-2.36 6.8,-2.36 l 5,6.29 -7.39,9.94 h -8.11 l -8.64,-9.94 z"
           style="fill:#263238;stroke:#263238;stroke-miterlimit:10"
           id="path91629" />
        <polygon
           points="243.98,419.31 282.71,419.31 265,331.26 256.88,331.26 "
           style="fill:#263238;stroke:#263238;stroke-miterlimit:10"
           id="polygon91631" />
        <path
           d="m 255.05,315 -12.83,17.8 c 0,0 -13.34,-22.77 -14.65,-26.43 -1.31,-3.66 1.83,-7.85 1.83,-7.85 0,0 4.45,-7.59 5.5,-7.33 1.05,0.26 20.15,23.81 20.15,23.81 z"
           style="fill:#ffffff;stroke:#263238;stroke-miterlimit:10"
           id="path91633" />
        <path
           d="m 264.41,315 12.83,17.8 c 0,0 13.35,-22.77 14.66,-26.43 1.31,-3.66 -1.84,-7.85 -1.84,-7.85 0,0 -4.45,-7.59 -5.49,-7.33 -1.04,0.26 -20.16,23.81 -20.16,23.81 z"
           style="fill:#ffffff;stroke:#263238;stroke-miterlimit:10"
           id="path91635" />
        <polygon
           points="135.05,395.56 173.38,394.9 187.38,419.23 137.38,419.23 "
           style="fill:#9c9c9c;stroke:#263238;stroke-miterlimit:10"
           id="polygon91637" />
        <path
           d="m 152.05,370.56 c 0,0 15.67,5.34 20.67,6.67 5,1.33 11.66,2 12.66,4 1,2 8.34,6 12,7 3.66,1 11,-0.33 11.67,3 0.67,3.33 -1.67,6.67 -5.67,9 -4,2.33 -14.33,1.67 -17.33,0.33 -3,-1.34 -6,-5.66 -9.67,-6 -3.67,-0.34 -7.66,4.34 -12,5.34 -4.34,1 -15,0.66 -18,0.66 -3,0 -17.33,1.34 -20.66,0.67 -3.33,-0.67 -12,-5.33 -14,-5.33 -2,0 -3.67,-8 1,-11.34 4.67,-3.34 21.33,-6.33 23.66,-7.33 z"
           style="fill:#9c9c9c;stroke:#263238;stroke-miterlimit:10"
           id="path91639" />
        <path
           d="m 110.38,384.9 c 0,0 -8.33,4 -9.33,5.66 -1,1.66 -0.33,11 1,16 1.33,5 4,11.34 6.67,11.67 2.67,0.33 3.33,-2.67 3,-7 -0.33,-4.33 -2,-14.67 -1.67,-17.33 0.33,-2.66 0.33,-9 0.33,-9 z"
           style="fill:#9c9c9c;stroke:#263238;stroke-miterlimit:10"
           id="path91641" />
        <path
           d="m 128.38,381.56 c 0,0 -12.66,-1.33 -14.33,-1.33 -1.67,0 -5.67,3.33 -6.33,7.67 -0.66,4.34 1,22.66 2,24.33 1,1.67 9,1.67 10,0.33 1,-1.34 1.33,-19 1.33,-19 l 5.67,-0.66 z"
           style="fill:#9c9c9c;stroke:#263238;stroke-miterlimit:10"
           id="path91643" />
        <path
           d="m 140.05,372.23 c 0,0 -3.33,-1.67 -8.67,-0.33 -5.34,1.34 -7.33,3.66 -7.33,9.66 0,6 -0.33,16.67 1.67,19.67 2,3 5,10 7.33,11.33 2.33,1.33 7.67,1.67 9,-0.33 1.33,-2 -1,-15.67 -1,-19.33 0,-3.66 -1,-20.67 -1,-20.67 z"
           style="fill:#9c9c9c;stroke:#263238;stroke-miterlimit:10"
           id="path91645" />
        <path
           d="m 160.72,374.56 c 0,0 -13.67,-8 -16,-8 -2.33,0 -6.67,3.67 -8,6.67 -1.33,3 -1,17.67 -1,20 0,2.33 5.33,13.33 5.66,14.67 0.33,1.34 -0.33,5 2.34,5.33 2.67,0.33 10.66,0.67 11.33,-4.33 0.67,-5 -3.33,-18.34 -3.33,-18.34 l 1,-9.33"
           style="fill:#9c9c9c;stroke:#263238;stroke-miterlimit:10"
           id="path91647" />
        <path
           d="m 152.05,388.23 a 11.44,11.44 0 0 0 8,-4.67"
           style="fill:none;stroke:#263238;stroke-miterlimit:10"
           id="path91649" />
        <polygon
           points="385.68,395.56 347.35,394.9 333.35,419.23 383.35,419.23 "
           style="fill:#9c9c9c;stroke:#263238;stroke-miterlimit:10"
           id="polygon91651" />
        <path
           d="m 368.68,370.56 c 0,0 -15.68,5.34 -20.68,6.67 -5,1.33 -11.66,2 -12.66,4 -1,2 -8.34,6 -12,7 -3.66,1 -11,-0.33 -11.67,3 -0.67,3.33 1.67,6.67 5.67,9 4,2.33 14.33,1.67 17.33,0.33 3,-1.34 6,-5.66 9.67,-6 3.67,-0.34 7.66,4.34 12,5.34 4.34,1 15,0.66 18,0.66 3,0 17.33,1.34 20.66,0.67 3.33,-0.67 12,-5.33 14,-5.33 2,0 3.67,-8 -1,-11.34 -4.67,-3.34 -21.33,-6.33 -23.66,-7.33 z"
           style="fill:#9c9c9c;stroke:#263238;stroke-miterlimit:10"
           id="path91653" />
        <path
           d="m 411,384.9 c 0,0 8.34,4 9.34,5.66 1,1.66 0.33,11 -1,16 -1.33,5 -4,11.34 -6.67,11.67 -2.67,0.33 -3.33,-2.67 -3,-7 0.33,-4.33 2,-14.67 1.67,-17.33 -0.33,-2.66 -0.34,-9 -0.34,-9 z"
           style="fill:#9c9c9c;stroke:#263238;stroke-miterlimit:10"
           id="path91655" />
        <path
           d="m 393,381.56 c 0,0 12.67,-1.33 14.34,-1.33 1.67,0 5.66,3.33 6.33,7.67 0.67,4.34 -1,22.66 -2,24.33 -1,1.67 -9,1.67 -10,0.33 -1,-1.34 -1.33,-19 -1.33,-19 l -5.67,-0.66 z"
           style="fill:#9c9c9c;stroke:#263238;stroke-miterlimit:10"
           id="path91657" />
        <path
           d="m 380.68,372.23 c 0,0 3.33,-1.67 8.67,-0.33 5.34,1.34 7.33,3.66 7.33,9.66 0,6 0.33,16.67 -1.67,19.67 -2,3 -5,10 -7.33,11.33 -2.33,1.33 -7.67,1.67 -9,-0.33 -1.33,-2 1,-15.67 1,-19.33 0,-3.66 1,-20.67 1,-20.67 z"
           style="fill:#9c9c9c;stroke:#263238;stroke-miterlimit:10"
           id="path91659" />
        <path
           d="m 360,374.56 c 0,0 13.67,-8 16,-8 2.33,0 6.67,3.67 8,6.67 1.33,3 1,17.67 1,20 0,2.33 -5.33,13.33 -5.66,14.67 -0.33,1.34 0.33,5 -2.34,5.33 -2.67,0.33 -10.66,0.67 -11.33,-4.33 -0.67,-5 3.33,-18.34 3.33,-18.34 l -1,-9.33"
           style="fill:#9c9c9c;stroke:#263238;stroke-miterlimit:10"
           id="path91661" />
        <path
           d="m 368.68,388.23 a 11.44,11.44 0 0 1 -8,-4.67"
           style="fill:none;stroke:#263238;stroke-miterlimit:10"
           id="path91663" />
        <rect
           x="97.199997"
           y="414.23001"
           width="17.469999"
           height="5.1999998"
           rx="1.13"
           style="fill:#263238;stroke:#263238;stroke-miterlimit:10"
           id="rect91665" />
        <rect
           x="119.31"
           y="414.23001"
           width="17.469999"
           height="5.1999998"
           rx="1.13"
           style="fill:#263238;stroke:#263238;stroke-miterlimit:10"
           id="rect91667" />
        <rect
           x="141.42"
           y="414.23001"
           width="17.469999"
           height="5.1999998"
           rx="1.13"
           style="fill:#263238;stroke:#263238;stroke-miterlimit:10"
           id="rect91669" />
        <rect
           x="163.53"
           y="414.23001"
           width="17.469999"
           height="5.1999998"
           rx="1.13"
           style="fill:#263238;stroke:#263238;stroke-miterlimit:10"
           id="rect91671" />
        <rect
           x="185.64"
           y="414.23001"
           width="17.469999"
           height="5.1999998"
           rx="1.13"
           style="fill:#263238;stroke:#263238;stroke-miterlimit:10"
           id="rect91673" />
        <rect
           x="207.75"
           y="414.23001"
           width="17.469999"
           height="5.1999998"
           rx="1.13"
           style="fill:#263238;stroke:#263238;stroke-miterlimit:10"
           id="rect91675" />
        <rect
           x="229.86"
           y="414.23001"
           width="17.469999"
           height="5.1999998"
           rx="1.13"
           style="fill:#263238;stroke:#263238;stroke-miterlimit:10"
           id="rect91677" />
        <rect
           x="251.97"
           y="414.23001"
           width="17.469999"
           height="5.1999998"
           rx="1.13"
           style="fill:#263238;stroke:#263238;stroke-miterlimit:10"
           id="rect91679" />
        <rect
           x="274.07999"
           y="414.23001"
           width="17.469999"
           height="5.1999998"
           rx="1.13"
           style="fill:#263238;stroke:#263238;stroke-miterlimit:10"
           id="rect91681" />
        <rect
           x="296.19"
           y="414.23001"
           width="17.469999"
           height="5.1999998"
           rx="1.13"
           style="fill:#263238;stroke:#263238;stroke-miterlimit:10"
           id="rect91683" />
        <rect
           x="318.29001"
           y="414.23001"
           width="17.469999"
           height="5.1999998"
           rx="1.13"
           style="fill:#263238;stroke:#263238;stroke-miterlimit:10"
           id="rect91685" />
        <rect
           x="340.39999"
           y="414.23001"
           width="17.469999"
           height="5.1999998"
           rx="1.13"
           style="fill:#263238;stroke:#263238;stroke-miterlimit:10"
           id="rect91687" />
        <rect
           x="362.51001"
           y="414.23001"
           width="17.469999"
           height="5.1999998"
           rx="1.13"
           style="fill:#263238;stroke:#263238;stroke-miterlimit:10"
           id="rect91689" />
        <rect
           x="384.62"
           y="414.23001"
           width="17.469999"
           height="5.1999998"
           rx="1.13"
           style="fill:#263238;stroke:#263238;stroke-miterlimit:10"
           id="rect91691" />
        <rect
           x="406.73001"
           y="414.23001"
           width="17.469999"
           height="5.1999998"
           rx="1.13"
           style="fill:#263238;stroke:#263238;stroke-miterlimit:10"
           id="rect91693" />
        <rect
           x="90.980003"
           y="417.53"
           width="339.44"
           height="14.53"
           style="fill:#263238;stroke:#263238;stroke-miterlimit:10"
           id="rect91695" />
        <line
           x1="41.200001"
           y1="432.06"
           x2="480.20001"
           y2="432.06"
           style="fill:none;stroke:#263238;stroke-miterlimit:10"
           id="line91697" />
      </g>
    </g>
  </g>
</svg>
